<svg width="16" height="16" viewBox="0 0 16 16" fill="none" xmlns="http://www.w3.org/2000/svg">
<circle cx="8" cy="7.99993" r="7.91836" transform="rotate(90.5938 8 7.99993)" fill="#F7DFBC"/>
<path d="M7.07945 12.3029C7.36584 12.5075 8.11934 12.6268 8.46029 12.6609L8.05115 12.3029L7.94886 11.8426V11.0755L8.20458 10.7175L8.92057 10.1038L9.89227 8.92752L10.148 8.51839L10.8128 8.4161L10.6594 7.54669V6.67727L10.6083 6.21699L9.58541 5.55214L9.02285 4.98958L8.66485 4.5293H8.00001L7.33516 4.58044L6.56803 5.24529L6.10775 5.34757L5.74975 5.44986L5.54518 5.80785L5.18719 6.57498V7.08641L4.62462 7.64897L4.36891 8.10925L4.82919 8.51839L5.03376 8.72296L5.54518 8.82524L6.31231 8.51839H6.67031L7.02831 8.82524L7.23287 9.28552H7.79544L7.64201 9.79694L6.56803 10.6152V11.5358C6.61917 11.7062 6.79305 12.0983 7.07945 12.3029Z" fill="url(#paint0_linear_569_3110)"/>
<path d="M8.75634 3.64137C9.15109 3.68733 9.68372 3.92526 10.0379 4.20645C10.1596 4.30648 10.2542 4.3903 10.2488 4.39571C10.2434 4.40111 10.1731 4.37137 10.092 4.32811C9.78646 4.16319 9.42957 4.06044 9.06457 4.03341C8.78068 4.01178 8.36701 4.03341 8.20208 4.07937C7.84519 4.17941 7.60726 4.26863 7.60726 4.30378C7.60726 4.33082 7.63971 4.32811 7.81004 4.29567C8.22101 4.21456 8.79419 4.21996 9.17542 4.30919C9.49446 4.38219 9.56746 4.40382 9.77294 4.49034C10.5354 4.81208 11.141 5.37445 11.4465 6.04227C11.5574 6.2829 11.5682 6.30994 11.6196 6.48027C11.6845 6.69117 11.671 6.73442 11.5925 6.58302C11.4763 6.36672 11.4033 6.27209 11.1951 6.0612C10.849 5.70701 10.4732 5.50153 9.94598 5.37175C9.55935 5.27712 9.43227 5.28793 9.72968 5.39338C10.5138 5.66916 11.1951 6.25857 11.5195 6.94802C11.8818 7.71317 11.8927 8.48914 11.5547 9.25429C11.5223 9.32729 11.4925 9.38137 11.4898 9.37596C11.4844 9.37055 11.4925 9.26511 11.5033 9.13803C11.5277 8.90551 11.4925 8.35395 11.4493 8.2404C11.4357 8.20525 11.4033 8.11062 11.379 8.02951C11.3168 7.84025 11.1978 7.61854 11.0734 7.46443C11.0194 7.39413 10.9707 7.33465 10.968 7.32924C10.9626 7.32384 10.9518 7.32384 10.9437 7.33195C10.9355 7.34006 10.9599 7.43739 10.9977 7.54554C11.1627 8.03762 11.2221 8.51618 11.1735 8.97581C11.1491 9.24077 11.0924 9.52196 11.0437 9.63822C11.0302 9.66796 10.9815 9.78422 10.9328 9.89778C10.8869 10.0113 10.7679 10.2439 10.6733 10.4115C10.311 11.0496 10.1569 11.4037 10.1055 11.7066L10.0866 11.8282L10.0487 11.693C10.0028 11.5254 10.0163 11.1145 10.0812 10.6792C10.1461 10.2384 10.1623 9.78152 10.1217 9.60578C10.0839 9.45437 10.0406 9.43814 10.0406 9.57603C10.0406 9.65444 9.98113 9.90318 9.93517 10.0167C9.86487 10.1844 9.72968 10.4574 9.64046 10.6034C9.58368 10.6981 9.50257 10.8576 9.45661 10.963C9.38631 11.1334 9.3782 11.182 9.3782 11.4362C9.3809 11.7336 9.40794 11.8282 9.55664 12.0553C9.61342 12.1392 9.61342 12.1446 9.56476 12.1175C9.53772 12.1013 9.41335 11.9959 9.29168 11.885C8.89423 11.5146 8.72119 11.1685 8.79149 10.89C8.80771 10.8279 8.81582 10.7684 8.80501 10.7603C8.78068 10.7359 8.39675 11.1631 8.31023 11.3172C8.20749 11.493 8.12097 11.7606 8.12097 11.8958C8.12097 12.0986 8.22101 12.3311 8.38864 12.5231L8.49949 12.6475L8.30482 12.5718C7.81274 12.3825 7.50452 12.1365 7.33148 11.7931C7.25848 11.6444 7.24767 11.5984 7.24767 11.3983C7.24767 11.1929 7.25578 11.1577 7.33689 11.0117C7.46667 10.7792 7.65593 10.6034 8.05337 10.3439C8.85368 9.82207 9.07809 9.64633 9.27816 9.38137C9.5215 9.06233 9.64587 8.52158 9.58639 8.06465C9.55664 7.83484 9.46472 7.55095 9.3782 7.41576C9.35657 7.38332 9.31601 7.32113 9.28898 7.28058L9.24301 7.20487L9.32412 7.26435C9.44038 7.34817 9.66479 7.5888 9.77294 7.74562C9.87839 7.89702 10.0406 8.22417 10.0406 8.28366C10.0406 8.30529 10.0514 8.33232 10.0676 8.34043C10.0812 8.34855 10.0947 8.38369 10.0947 8.41614C10.0947 8.45669 10.1028 8.46481 10.1244 8.44318C10.1461 8.42155 10.1461 8.3864 10.1271 8.32151C10.1109 8.27284 10.092 8.1728 10.0812 8.0998C10.0704 8.0268 10.0541 7.94839 10.0406 7.92406C10.0271 7.89973 9.99735 7.81862 9.97031 7.74562C9.82702 7.33735 9.38361 6.80743 8.98616 6.56679C8.77527 6.44242 8.4373 6.28831 8.29671 6.25857C8.22101 6.24235 8.2183 6.23964 8.26967 6.2099C8.30482 6.18827 8.46434 6.17746 8.71579 6.17746C9.07809 6.17746 9.12135 6.18557 9.29438 6.25316C9.91894 6.4992 10.3569 7.0778 10.4299 7.75373C10.4516 7.9538 10.4867 8.06465 10.5084 8.00247C10.5165 7.98084 10.5354 7.85106 10.5543 7.71587C10.6003 7.34817 10.53 6.91287 10.3705 6.5722C10.0676 5.92331 9.42687 5.48531 8.71308 5.44205L8.45623 5.42582L8.40486 5.20682C8.32104 4.83641 8.27238 4.78504 7.98037 4.78504C7.62078 4.78504 7.2693 4.94186 6.9854 5.22575C6.88266 5.32849 6.79074 5.43664 6.78263 5.46368C6.7664 5.51234 6.73396 5.51505 6.33651 5.51505H5.90662L5.75521 5.75838C5.6741 5.89357 5.54973 6.10175 5.47943 6.22612C5.35236 6.44783 5.35236 6.44783 5.34154 6.74524L5.33073 7.03994L5.21987 7.18054C5.15769 7.25895 4.98195 7.46173 4.82783 7.63476C4.56557 7.92677 4.5115 8.0268 4.63587 7.98895C4.66561 7.97814 4.79809 7.98084 4.93058 7.99165L5.17391 8.01058L5.05224 8.14306C4.94409 8.26473 4.93058 8.29177 4.93058 8.40803C4.93058 8.52969 4.93598 8.54051 5.03061 8.58647C5.11172 8.62703 5.19284 8.63784 5.41725 8.63514C5.7498 8.63514 5.78225 8.62162 6.17429 8.32962C6.46359 8.11062 6.46899 8.10791 6.761 8.24851C7.04759 8.3864 7.25848 8.65947 7.33689 8.99473C7.35311 9.07314 7.37744 9.13803 7.38826 9.13803C7.39637 9.13803 7.43422 9.07314 7.47207 8.99473C7.52885 8.87577 7.53967 8.81629 7.53967 8.59729C7.53967 8.36747 7.53156 8.32421 7.46126 8.18362C7.35852 7.98354 7.11518 7.75102 6.89889 7.64828L6.72855 7.56717L6.86374 7.58339C7.40448 7.65099 7.91548 8.06465 8.04797 8.54321C8.06149 8.59458 8.08041 8.75951 8.09123 8.90822L8.10745 9.17859L8.15882 9.07044C8.33997 8.67299 8.32104 8.31069 8.10204 7.99706C7.94523 7.76995 7.66404 7.5915 7.3423 7.5158C7.26389 7.49687 7.2017 7.47524 7.20711 7.46443C7.21252 7.45632 7.27741 7.33195 7.35581 7.19135C7.56941 6.79931 7.57752 6.84798 7.22063 6.4965L6.9124 6.19098L6.95026 6.02335C7.03407 5.66105 7.26118 5.35553 7.5613 5.20412C7.68837 5.14193 7.75326 5.12571 7.91008 5.12571L8.10204 5.12301L8.1426 5.28523C8.17504 5.42042 8.17775 5.47449 8.14801 5.62319C8.09393 5.90979 7.9236 6.18827 7.71541 6.33157L7.64782 6.37753L7.71541 6.43431C7.75326 6.46676 7.89656 6.58572 8.03715 6.69928C8.82123 7.34006 9.0889 7.71047 9.17812 8.29447C9.20786 8.48914 9.17812 8.81088 9.11864 8.92173C9.10783 8.94336 9.06997 9.02177 9.03483 9.09748C8.95642 9.27322 8.57519 9.65444 8.32375 9.81396C8.2183 9.88156 8.12908 9.94104 8.12097 9.94915C8.11286 9.95996 7.98578 10.0384 7.83978 10.1249C7.17196 10.5196 6.86644 10.863 6.79614 11.2848C6.74477 11.6119 6.88807 11.9986 7.17467 12.2987C7.26118 12.3906 7.31796 12.4636 7.29904 12.4636C7.24226 12.4636 6.89889 12.2771 6.75018 12.1635C6.44466 11.9337 6.22836 11.5254 6.22836 11.1739C6.22836 10.7603 6.42844 10.3655 6.89077 9.87074C7.2017 9.54089 7.22333 9.49492 6.9827 9.68418C6.86103 9.77611 6.80966 9.78422 6.8367 9.6977C6.9097 9.46518 6.92322 9.15155 6.86644 9.01636C6.73937 8.71084 6.4041 8.8244 6.19321 9.24348C6.14455 9.33811 6.04992 9.476 5.97962 9.54629C5.86336 9.66796 5.84443 9.67878 5.72277 9.67878C5.64436 9.67878 5.54702 9.65715 5.48484 9.6247C5.31991 9.54089 5.2361 9.5517 5.11443 9.68148C5.05495 9.74367 5.00087 9.78422 4.99006 9.77341C4.97924 9.76259 4.97113 9.64903 4.97113 9.51655C4.97113 9.30025 4.97654 9.27051 5.03602 9.20833C5.07387 9.16777 5.13065 9.13803 5.17391 9.13803C5.24691 9.13803 5.49025 9.21103 5.53891 9.24618C5.55243 9.257 5.6038 9.27592 5.65247 9.28674C5.7498 9.30566 5.76062 9.29755 5.98503 9.02988C6.12562 8.86496 6.15807 8.81629 6.13914 8.79466C6.1121 8.76762 5.95799 8.87847 5.95799 8.92444C5.95799 8.95418 5.93366 8.97581 5.8958 8.98122C5.86336 8.98662 5.83903 9.00014 5.84443 9.01636C5.84984 9.02988 5.82551 9.04881 5.79306 9.05692C5.76062 9.06503 5.72006 9.09477 5.70384 9.12451C5.68762 9.15425 5.6714 9.184 5.66869 9.1894C5.65247 9.21374 5.57406 9.12181 5.53891 9.03799C5.50376 8.95148 5.49565 8.94877 5.35236 8.94877C5.20906 8.94877 5.20095 8.95148 5.20095 9.01636V9.08396L5.04684 9.01366C4.96032 8.97581 4.86298 8.91903 4.82783 8.88659C4.76835 8.83251 4.6602 8.62162 4.6602 8.56484C4.6602 8.55132 4.56557 8.44588 4.44931 8.33232C4.12757 8.01599 4.13568 8.06465 4.3682 7.8051C4.47635 7.68343 4.69265 7.4401 4.84406 7.26435L5.11984 6.94802V6.67765C5.11984 6.37753 5.0901 6.45053 5.4551 5.83949C5.62002 5.56371 5.6768 5.44205 5.69303 5.32849C5.78495 4.7526 6.14995 4.26322 6.72044 3.94959C6.80425 3.90363 6.87996 3.86578 6.88807 3.86578C6.89618 3.86578 6.84751 3.91715 6.78263 3.97663C6.47981 4.25511 6.27703 4.65797 6.24188 5.05541L6.22566 5.23116L6.34192 5.00134C6.66907 4.36326 7.01785 4.01719 7.58022 3.77385C7.856 3.65218 8.37782 3.59541 8.75634 3.64137ZM7.51804 5.46638C7.45315 5.50153 7.36393 5.65023 7.36393 5.72594C7.36393 5.80705 7.40989 5.89357 7.45315 5.89357C7.47478 5.89357 7.52885 5.82327 7.57752 5.73405C7.63971 5.6259 7.70189 5.5556 7.77219 5.51505C7.83167 5.4826 7.87223 5.44475 7.86141 5.43123C7.84519 5.40149 7.59374 5.42853 7.51804 5.46638Z" fill="black"/>
<path d="M6.39059 6.4533C6.39059 6.46141 6.30408 6.58578 6.19593 6.73448C6.05804 6.92104 5.98504 7.00215 5.94448 7.00215C5.80389 7.00215 5.77415 7.0346 5.64166 7.29415L5.51188 7.55371L5.50377 7.31308C5.49566 7.07786 5.49837 7.07245 5.58489 6.9643C5.66059 6.87237 5.67681 6.82641 5.68763 6.67771L5.70115 6.50196L5.84985 6.51007C5.93096 6.51548 6.08778 6.50196 6.19322 6.48033C6.30137 6.4587 6.39059 6.44789 6.39059 6.4533ZM5.84715 6.70204C5.83633 6.71015 5.82011 6.7453 5.80929 6.77774C5.79578 6.82371 5.80389 6.83993 5.83633 6.83993C5.90663 6.83993 6.01207 6.75611 6.01207 6.70204C6.01207 6.65878 5.99855 6.65337 5.93637 6.66689C5.89581 6.67771 5.85526 6.69122 5.84715 6.70204Z" fill="black"/>
<path d="M6.00936 8.09976C5.81199 8.24846 5.54162 8.33228 5.28206 8.32417C5.19013 8.32146 5.19284 8.31876 5.32261 8.28361C5.58488 8.20791 5.97151 8.07813 5.99584 8.0538C6.01206 8.04028 6.0418 8.02946 6.06343 8.02946C6.08506 8.02946 6.06073 8.06191 6.00936 8.09976Z" fill="#282827"/>
<path d="M5.95799 8.34312C5.87418 8.44046 5.70384 8.49723 5.44429 8.50805C5.30099 8.51616 5.15769 8.50805 5.11984 8.49183C5.06036 8.4702 5.07117 8.46479 5.19825 8.46479C5.37399 8.46209 5.74981 8.39179 5.86877 8.33771C5.97692 8.28905 6.00125 8.28905 5.95799 8.34312Z" fill="#282827"/>
<path d="M4.80668 3.21644C4.84558 3.22278 4.87981 3.23388 4.88448 3.23864C4.89692 3.2545 4.96072 3.2878 4.97783 3.2878C4.98717 3.2878 5.03073 3.32585 5.07585 3.37026C5.15831 3.45589 5.22677 3.56847 5.22677 3.6208C5.22677 3.63825 5.233 3.6541 5.23922 3.65886C5.247 3.66362 5.261 3.79365 5.27189 3.94905C5.28278 4.10445 5.29834 4.24876 5.30457 4.27096C5.31235 4.29316 5.32324 4.3328 5.3279 4.36135C5.33413 4.3883 5.35902 4.44063 5.38392 4.47552C5.40881 4.51199 5.42904 4.54529 5.42904 4.55005C5.42904 4.57542 5.64375 4.73399 5.76044 4.79425C5.81801 4.82438 5.93003 4.93538 5.95181 4.98454C5.99538 5.08286 6.00471 5.11775 6.00471 5.18276C6.00471 5.22082 5.99849 5.25729 5.98915 5.26205C5.98137 5.26681 5.97359 5.28583 5.97359 5.30328C5.97359 5.34609 5.94559 5.39208 5.87246 5.46661C5.73866 5.60615 5.57529 5.62994 5.39636 5.53797C5.30301 5.4904 5.07429 5.24936 4.9685 5.08762C4.81913 4.85927 4.76001 4.65788 4.75845 4.37403C4.75845 4.27413 4.76467 4.1663 4.77401 4.133C4.81135 3.98394 4.84247 3.79523 4.84247 3.71119C4.84091 3.62556 4.81913 3.56847 4.76623 3.51456C4.73511 3.48126 4.63554 3.43051 4.60442 3.43051C4.58886 3.43051 4.57019 3.42258 4.56552 3.41466C4.56085 3.40514 4.53596 3.3988 4.51107 3.3988C4.4146 3.3988 4.38971 3.2656 4.47528 3.21802C4.5204 3.19424 4.67755 3.19424 4.80668 3.21644Z" fill="black"/>
<defs>
<linearGradient id="paint0_linear_569_3110" x1="7.59087" y1="4.5293" x2="7.7443" y2="12.8655" gradientUnits="userSpaceOnUse">
<stop stop-color="#F7DFBC"/>
<stop offset="1" stop-color="#FDF8F1" stop-opacity="0"/>
</linearGradient>
</defs>
</svg>
