<svg width="1024" height="1024" viewBox="0 0 1024 1024" fill="none" xmlns="http://www.w3.org/2000/svg">
<circle cx="512" cy="512" r="506.775" transform="rotate(90.5938 512 512)" fill="#F7DFBC"/>
<path d="M453.084 787.386C471.414 800.479 519.637 808.116 541.458 810.298L515.273 787.386L508.727 757.928V708.832L525.092 685.92L570.916 646.643L633.105 571.362L649.47 545.177L692.021 538.631L682.201 482.988V427.345L678.928 397.887L613.466 355.337L577.462 319.333L554.55 289.875H512L469.45 293.148L420.353 335.698L390.895 342.245L367.984 348.791L354.891 371.702L331.98 420.799V453.53L295.975 489.534L279.61 518.992L309.068 545.177L322.16 558.269L354.891 564.815L403.988 545.177H426.899L449.811 564.815L462.904 594.273H498.908L489.088 627.004L420.353 679.374V738.29C423.626 749.2 434.755 774.294 453.084 787.386Z" fill="url(#paint0_linear_569_3170)"/>
<path d="M560.406 233.045C585.669 235.987 619.758 251.214 642.426 269.21C650.213 275.613 656.269 280.977 655.923 281.323C655.577 281.669 651.078 279.765 645.887 276.997C626.333 266.441 603.492 259.866 580.132 258.136C561.963 256.751 535.488 258.136 524.933 261.077C502.092 267.48 486.864 273.19 486.864 275.439C486.864 277.17 488.941 276.997 499.842 274.92C526.144 269.729 562.828 270.075 587.227 275.786C607.645 280.458 612.317 281.842 625.468 287.379C674.265 307.971 713.025 343.963 732.579 386.703C739.673 402.103 740.365 403.834 743.653 414.735C747.806 428.232 746.941 431.001 741.923 421.311C734.482 407.468 729.81 401.411 716.486 387.914C694.337 365.246 670.285 352.095 636.543 343.79C611.798 337.733 603.665 338.425 622.699 345.174C672.881 362.824 716.486 400.546 737.251 444.671C760.438 493.641 761.13 543.302 739.5 592.272C737.424 596.944 735.52 600.405 735.347 600.059C735.001 599.713 735.52 592.964 736.213 584.832C737.77 569.95 735.52 534.651 732.752 527.383C731.887 525.133 729.81 519.077 728.253 513.886C724.273 501.773 716.659 487.584 708.699 477.721C705.239 473.222 702.124 469.415 701.951 469.069C701.605 468.723 700.913 468.723 700.394 469.242C699.875 469.761 701.432 475.991 703.854 482.912C714.41 514.405 718.217 545.033 715.102 574.449C713.545 591.407 709.911 609.403 706.796 616.844C705.931 618.747 702.816 626.188 699.701 633.455C696.76 640.723 689.146 655.604 683.09 666.333C659.903 707.17 650.039 729.838 646.752 749.218L645.54 757.005L643.118 748.353C640.176 737.624 641.041 711.322 645.194 683.463C649.347 655.258 650.386 626.015 647.79 614.767C645.367 605.077 642.599 604.039 642.599 612.864C642.599 617.882 638.792 633.801 635.85 641.069C631.351 651.797 622.699 669.274 616.989 678.618C613.355 684.675 608.164 694.884 605.223 701.632C600.724 712.534 600.204 715.648 600.204 731.914C600.378 750.948 602.108 757.005 611.625 771.54C615.259 776.904 615.259 777.25 612.144 775.52C610.414 774.481 602.454 767.733 594.667 760.638C569.231 736.932 558.156 714.783 562.655 696.96C563.693 692.98 564.213 689.174 563.52 688.654C561.963 687.097 537.392 714.437 531.854 724.3C525.279 735.548 519.742 752.679 519.742 761.33C519.742 774.308 526.144 789.19 536.872 801.475L543.967 809.435L531.508 804.59C500.015 792.477 480.289 776.731 469.215 754.755C464.543 745.238 463.85 742.296 463.85 729.491C463.85 716.341 464.369 714.091 469.561 704.747C477.866 689.866 489.979 678.618 515.416 662.007C566.635 628.61 580.997 617.363 593.802 600.405C609.376 579.987 617.335 545.379 613.528 516.135C611.625 501.427 605.742 483.258 600.204 474.606C598.82 472.53 596.225 468.55 594.494 465.954L591.553 461.109L596.744 464.916C604.184 470.28 618.547 485.681 625.468 495.717C632.217 505.407 642.599 526.345 642.599 530.152C642.599 531.536 643.291 533.266 644.329 533.785C645.194 534.304 646.06 536.554 646.06 538.63C646.06 541.226 646.579 541.745 647.963 540.361C649.347 538.976 649.347 536.727 648.136 532.574C647.098 529.459 645.887 523.057 645.194 518.385C644.502 513.713 643.464 508.695 642.599 507.137C641.734 505.58 639.83 500.389 638.1 495.717C628.929 469.588 600.551 435.673 575.114 420.272C561.617 412.313 539.987 402.449 530.989 400.546C526.144 399.508 525.971 399.335 529.259 397.431C531.508 396.047 541.718 395.355 557.81 395.355C580.997 395.355 583.766 395.874 594.84 400.2C634.812 415.946 662.844 452.977 667.516 496.236C668.901 509.041 671.15 516.135 672.534 512.156C673.054 510.771 674.265 502.465 675.476 493.814C678.418 470.28 673.919 442.421 663.71 420.618C644.329 379.089 603.319 351.057 557.637 348.289L541.198 347.25L537.911 333.234C532.547 309.528 529.432 306.24 510.744 306.24C487.73 306.24 465.235 316.276 447.066 334.445C440.49 341.021 434.607 347.942 434.088 349.673C433.05 352.788 430.973 352.961 405.536 352.961H378.023L368.333 368.534C363.142 377.186 355.182 390.51 350.683 398.47C342.551 412.659 342.551 412.659 341.858 431.693L341.166 450.554L334.072 459.552C330.092 464.57 318.844 477.548 308.981 488.622C292.196 507.311 288.736 513.713 296.695 511.29C298.599 510.598 307.078 510.771 315.557 511.463L331.13 512.675L323.343 521.154C316.422 528.94 315.557 530.671 315.557 538.111C315.557 545.898 315.903 546.59 321.959 549.532C327.15 552.127 332.341 552.82 346.703 552.647C367.987 552.647 370.064 551.781 395.154 533.093C413.669 519.077 414.015 518.904 432.703 527.902C451.046 536.727 464.543 554.204 469.561 575.661C470.599 580.679 472.156 584.832 472.848 584.832C473.367 584.832 475.79 580.679 478.213 575.661C481.846 568.047 482.538 564.24 482.538 550.224C482.538 535.516 482.019 532.747 477.52 523.749C470.945 510.944 455.371 496.063 441.528 489.488L430.627 484.296L439.279 485.335C473.887 489.661 506.591 516.135 515.07 546.763C515.935 550.051 517.146 560.606 517.838 570.123L518.877 587.427L522.164 580.506C533.758 555.069 532.547 531.882 518.53 511.81C508.494 497.274 490.498 485.854 469.907 481.009C464.889 479.797 460.909 478.413 461.255 477.721C461.601 477.202 465.754 469.242 470.772 460.244C484.442 435.154 484.961 438.268 462.12 415.773L442.394 396.22L444.816 385.492C450.18 362.305 464.716 342.751 483.923 333.061C492.056 329.081 496.208 328.043 506.245 328.043L518.53 327.87L521.126 338.252C523.202 346.904 523.376 350.365 521.472 359.882C518.011 378.224 507.11 396.047 493.786 405.218L489.46 408.16L493.786 411.793C496.209 413.87 505.38 421.484 514.378 428.751C564.559 469.761 581.689 493.467 587.4 530.844C589.303 543.302 587.4 563.894 583.593 570.989C582.901 572.373 580.478 577.391 578.229 582.236C573.211 593.484 548.812 617.882 532.72 628.091C525.971 632.417 520.261 636.224 519.742 636.743C519.223 637.435 511.09 642.453 501.746 647.991C459.005 673.254 439.452 695.23 434.953 722.224C431.665 743.161 440.836 767.906 459.178 787.113C464.716 792.996 468.349 797.668 467.138 797.668C463.504 797.668 441.528 785.729 432.011 778.461C412.458 763.753 398.615 737.624 398.615 715.129C398.615 688.654 411.42 663.391 441.009 631.725C460.909 610.614 462.293 607.673 446.893 619.785C439.106 625.669 435.818 626.188 437.549 620.65C442.221 605.769 443.086 585.697 439.452 577.045C431.319 557.492 409.862 564.759 396.365 591.58C393.251 597.636 387.194 606.461 382.695 610.96C375.255 618.747 374.044 619.439 366.257 619.439C361.239 619.439 355.009 618.055 351.029 615.978C340.474 610.614 335.11 611.306 327.323 619.612C323.516 623.592 320.056 626.188 319.363 625.496C318.671 624.803 318.152 617.536 318.152 609.057C318.152 595.214 318.498 593.31 322.305 589.331C324.728 586.735 328.361 584.832 331.13 584.832C335.802 584.832 351.376 589.504 354.49 591.753C355.355 592.445 358.643 593.657 361.758 594.349C367.987 595.56 368.679 595.041 383.042 577.91C392.04 567.355 394.116 564.24 392.905 562.856C391.174 561.125 381.311 568.22 381.311 571.162C381.311 573.065 379.754 574.449 377.331 574.795C375.255 575.141 373.697 576.007 374.044 577.045C374.39 577.91 372.832 579.121 370.756 579.64C368.679 580.16 366.084 582.063 365.046 583.966C364.007 585.87 362.969 587.773 362.796 588.119C361.758 589.677 356.74 583.793 354.49 578.429C352.241 572.892 351.722 572.719 342.551 572.719C333.38 572.719 332.86 572.892 332.86 577.045V581.371L322.997 576.872C317.46 574.449 311.231 570.816 308.981 568.739C305.174 565.278 298.253 551.781 298.253 548.148C298.253 547.282 292.196 540.534 284.756 533.266C264.164 513.021 264.683 516.135 279.565 499.524C286.486 491.737 300.329 476.164 310.019 464.916L327.669 444.671V427.367C327.669 408.16 325.766 412.832 349.126 373.725C359.681 356.075 363.315 348.288 364.353 341.021C370.237 304.164 393.597 272.844 430.108 252.771C435.472 249.83 440.317 247.407 440.836 247.407C441.355 247.407 438.241 250.695 434.088 254.502C414.707 272.325 401.73 298.107 399.48 323.544L398.442 334.792L405.883 320.083C426.82 279.246 449.142 257.097 485.134 241.524C502.784 233.737 536.18 230.103 560.406 233.045ZM481.154 349.846C477.001 352.095 471.291 361.612 471.291 366.458C471.291 371.649 474.233 377.186 477.001 377.186C478.386 377.186 481.846 372.687 484.961 366.977C488.941 360.055 492.921 355.556 497.42 352.961C501.227 350.884 503.822 348.462 503.13 347.596C502.092 345.693 485.999 347.423 481.154 349.846Z" fill="black"/>
<path d="M408.997 413.004C408.997 413.523 403.46 421.483 396.539 431C387.714 442.939 383.042 448.13 380.446 448.13C371.448 448.13 369.545 450.207 361.066 466.819L352.76 483.43L352.241 468.03C351.722 452.975 351.895 452.629 357.432 445.708C362.277 439.825 363.315 436.883 364.007 427.366L364.873 416.118L374.39 416.637C379.581 416.984 389.617 416.118 396.366 414.734C403.287 413.35 408.997 412.658 408.997 413.004ZM374.217 428.923C373.525 429.442 372.486 431.692 371.794 433.768C370.929 436.71 371.448 437.748 373.525 437.748C378.024 437.748 384.772 432.384 384.772 428.923C384.772 426.155 383.907 425.808 379.927 426.674C377.331 427.366 374.736 428.231 374.217 428.923Z" fill="black"/>
<path d="M384.599 518.388C371.967 527.906 354.663 533.27 338.051 532.751C332.168 532.578 332.341 532.405 340.647 530.155C357.432 525.31 382.176 517.004 383.733 515.447C384.772 514.582 386.675 513.889 388.059 513.889C389.444 513.889 387.886 515.966 384.599 518.388Z" fill="#282827"/>
<path d="M381.311 533.956C375.947 540.185 365.045 543.819 348.433 544.511C339.262 545.03 330.091 544.511 327.669 543.473C323.862 542.089 324.554 541.743 332.687 541.743C343.934 541.57 367.987 537.071 375.6 533.61C382.522 530.495 384.079 530.495 381.311 533.956Z" fill="#282827"/>
<path d="M307.628 205.855C310.118 206.26 312.309 206.971 312.607 207.275C313.404 208.29 317.487 210.421 318.582 210.421C319.179 210.421 321.967 212.857 324.855 215.699C330.133 221.179 334.514 228.385 334.514 231.734C334.514 232.85 334.912 233.865 335.311 234.17C335.809 234.474 336.705 242.796 337.402 252.742C338.099 262.688 339.095 271.923 339.493 273.344C339.991 274.765 340.688 277.302 340.987 279.129C341.385 280.854 342.978 284.203 344.571 286.436C346.165 288.77 347.459 290.901 347.459 291.206C347.459 292.829 361.201 302.978 368.669 306.835C372.353 308.763 379.523 315.867 380.917 319.013C383.705 325.305 384.302 327.538 384.302 331.699C384.302 334.135 383.904 336.469 383.307 336.774C382.809 337.078 382.311 338.296 382.311 339.412C382.311 342.152 380.518 345.096 375.838 349.865C367.275 358.796 356.819 360.319 345.368 354.432C339.393 351.388 324.756 335.962 317.984 325.61C308.425 310.996 304.641 298.107 304.542 279.94C304.542 273.547 304.94 266.646 305.537 264.514C307.927 254.974 309.919 242.897 309.919 237.519C309.819 232.038 308.425 228.385 305.039 224.934C303.048 222.803 296.675 219.555 294.684 219.555C293.688 219.555 292.493 219.048 292.194 218.54C291.895 217.931 290.302 217.526 288.709 217.526C282.535 217.526 280.942 209.001 286.419 205.956C289.306 204.434 299.364 204.434 307.628 205.855Z" fill="black"/>
<defs>
<linearGradient id="paint0_linear_569_3170" x1="485.815" y1="289.875" x2="495.635" y2="823.39" gradientUnits="userSpaceOnUse">
<stop stop-color="#F7DFBC"/>
<stop offset="1" stop-color="#FDF8F1" stop-opacity="0"/>
</linearGradient>
</defs>
</svg>
