<svg width="32" height="32" viewBox="0 0 32 32" fill="none" xmlns="http://www.w3.org/2000/svg">
<circle cx="16" cy="15.9999" r="15.8367" transform="rotate(90.5938 16 15.9999)" fill="#F7DFBC"/>
<path d="M14.1589 24.6058C14.7317 25.015 16.2386 25.2536 16.9205 25.3218L16.1023 24.6058L15.8977 23.6853V22.151L16.4091 21.435L17.8411 20.2076L19.7845 17.855L20.2959 17.0368L21.6256 16.8322L21.3188 15.0934V13.3545L21.2165 12.434L19.1708 11.1043L18.0457 9.97915L17.3297 9.05859H16L14.6703 9.16088L13.136 10.4906L12.2155 10.6951L11.4995 10.8997L11.0903 11.6157L10.3743 13.15V14.1728L9.24921 15.2979L8.73779 16.2185L9.65835 17.0368L10.0675 17.4459L11.0903 17.6505L12.6246 17.0368H13.3406L14.0566 17.6505L14.4657 18.571H15.5908L15.284 19.5939L13.136 21.2304V23.0716C13.2383 23.4125 13.5861 24.1967 14.1589 24.6058Z" fill="url(#paint0_linear_569_3120)"/>
<path d="M17.5127 7.28274C18.3021 7.37466 19.3674 7.85052 20.0758 8.41289C20.3191 8.61297 20.5084 8.7806 20.4976 8.79141C20.4867 8.80223 20.3462 8.74275 20.1839 8.65623C19.5729 8.32637 18.8591 8.12089 18.1291 8.06681C17.5613 8.02356 16.734 8.06682 16.4041 8.15874C15.6903 8.35882 15.2145 8.53726 15.2145 8.60756C15.2145 8.66163 15.2794 8.65623 15.62 8.59134C16.442 8.42911 17.5884 8.43993 18.3508 8.61837C18.9889 8.76437 19.1349 8.80764 19.5459 8.98067C21.0708 9.62416 22.282 10.7489 22.8931 12.0845C23.1148 12.5658 23.1364 12.6199 23.2391 12.9605C23.3689 13.3823 23.3419 13.4688 23.1851 13.166C22.9525 12.7334 22.8065 12.5442 22.3902 12.1224C21.698 11.414 20.9464 11.0031 19.8919 10.7435C19.1187 10.5542 18.8645 10.5759 19.4593 10.7868C21.0275 11.3383 22.3902 12.5171 23.0391 13.896C23.7637 15.4263 23.7853 16.9783 23.1094 18.5086C23.0445 18.6546 22.985 18.7627 22.9796 18.7519C22.9688 18.7411 22.985 18.5302 23.0066 18.2761C23.0553 17.811 22.985 16.7079 22.8985 16.4808C22.8714 16.4105 22.8065 16.2212 22.7579 16.059C22.6335 15.6805 22.3956 15.2371 22.1468 14.9289C22.0387 14.7883 21.9414 14.6693 21.9359 14.6585C21.9251 14.6477 21.9035 14.6477 21.8873 14.6639C21.8711 14.6801 21.9197 14.8748 21.9954 15.0911C22.3253 16.0752 22.4442 17.0324 22.3469 17.9516C22.2982 18.4815 22.1847 19.0439 22.0874 19.2764C22.0603 19.3359 21.963 19.5684 21.8656 19.7956C21.7737 20.0227 21.5358 20.4877 21.3465 20.823C20.6219 22.0991 20.3137 22.8075 20.211 23.4131L20.1731 23.6565L20.0974 23.3861C20.0055 23.0508 20.0325 22.2289 20.1623 21.3583C20.2921 20.4769 20.3245 19.563 20.2434 19.2116C20.1677 18.9087 20.0812 18.8763 20.0812 19.1521C20.0812 19.3089 19.9622 19.8064 19.8703 20.0335C19.7297 20.3687 19.4593 20.9149 19.2809 21.2069C19.1673 21.3962 19.0051 21.7152 18.9132 21.9261C18.7726 22.2668 18.7564 22.3641 18.7564 22.8724C18.7618 23.4672 18.8158 23.6565 19.1133 24.1107C19.2268 24.2783 19.2268 24.2891 19.1295 24.2351C19.0754 24.2026 18.8267 23.9917 18.5833 23.77C17.7884 23.0292 17.4424 22.3371 17.583 21.7801C17.6154 21.6557 17.6316 21.5368 17.61 21.5205C17.5613 21.4719 16.7935 22.3262 16.6204 22.6345C16.4149 22.9859 16.2419 23.5213 16.2419 23.7917C16.2419 24.1972 16.442 24.6623 16.7772 25.0462L16.9989 25.2949L16.6096 25.1435C15.6255 24.765 15.009 24.2729 14.6629 23.5862C14.5169 23.2888 14.4953 23.1968 14.4953 22.7967C14.4953 22.3857 14.5115 22.3154 14.6737 22.0234C14.9333 21.5584 15.3118 21.2069 16.1067 20.6878C17.7073 19.6441 18.1561 19.2927 18.5563 18.7627C19.043 18.1247 19.2917 17.0432 19.1727 16.1293C19.1133 15.6697 18.9294 15.1019 18.7564 14.8315C18.7131 14.7666 18.632 14.6423 18.5779 14.5612L18.486 14.4097L18.6482 14.5287C18.8807 14.6963 19.3296 15.1776 19.5459 15.4912C19.7567 15.794 20.0812 16.4483 20.0812 16.5673C20.0812 16.6106 20.1028 16.6646 20.1353 16.6809C20.1623 16.6971 20.1893 16.7674 20.1893 16.8323C20.1893 16.9134 20.2056 16.9296 20.2488 16.8864C20.2921 16.8431 20.2921 16.7728 20.2542 16.643C20.2218 16.5457 20.1839 16.3456 20.1623 16.1996C20.1407 16.0536 20.1082 15.8968 20.0812 15.8481C20.0542 15.7995 19.9947 15.6372 19.9406 15.4912C19.654 14.6747 18.7672 13.6149 17.9723 13.1336C17.5505 12.8848 16.8746 12.5766 16.5934 12.5171C16.442 12.4847 16.4366 12.4793 16.5393 12.4198C16.6096 12.3765 16.9287 12.3549 17.4315 12.3549C18.1561 12.3549 18.2427 12.3711 18.5887 12.5063C19.8379 12.9984 20.7139 14.1556 20.8599 15.5075C20.9031 15.9076 20.9734 16.1293 21.0167 16.0049C21.0329 15.9617 21.0708 15.7021 21.1086 15.4317C21.2005 14.6963 21.0599 13.8257 20.7409 13.1444C20.1353 11.8466 18.8537 10.9706 17.4261 10.8841L16.9124 10.8516L16.8097 10.4136C16.6421 9.67282 16.5447 9.57008 15.9607 9.57008C15.2415 9.57008 14.5386 9.88372 13.9708 10.4515C13.7653 10.657 13.5814 10.8733 13.5652 10.9274C13.5328 11.0247 13.4679 11.0301 12.673 11.0301H11.8132L11.5104 11.5168C11.3482 11.7871 11.0994 12.2035 10.9588 12.4522C10.7047 12.8957 10.7047 12.8957 10.6831 13.4905L10.6614 14.0799L10.4397 14.3611C10.3153 14.5179 9.96386 14.9235 9.65564 15.2695C9.13112 15.8535 9.02297 16.0536 9.27171 15.9779C9.33119 15.9563 9.59616 15.9617 9.86112 15.9833L10.3478 16.0212L10.1045 16.2861C9.88816 16.5295 9.86112 16.5835 9.86112 16.8161C9.86112 17.0594 9.87194 17.081 10.0612 17.1729C10.2234 17.2541 10.3856 17.2757 10.8345 17.2703C11.4996 17.2703 11.5645 17.2432 12.3485 16.6592C12.9271 16.2212 12.938 16.2158 13.522 16.497C14.0951 16.7728 14.5169 17.3189 14.6737 17.9895C14.7062 18.1463 14.7549 18.2761 14.7765 18.2761C14.7927 18.2761 14.8684 18.1463 14.9441 17.9895C15.0577 17.7515 15.0793 17.6326 15.0793 17.1946C15.0793 16.7349 15.0631 16.6484 14.9225 16.3672C14.717 15.9671 14.2303 15.502 13.7977 15.2966L13.4571 15.1343L13.7274 15.1668C14.8089 15.302 15.8309 16.1293 16.0959 17.0864C16.1229 17.1892 16.1608 17.519 16.1824 17.8164L16.2149 18.3572L16.3176 18.1409C16.6799 17.346 16.6421 16.6214 16.2041 15.9941C15.8904 15.5399 15.328 15.183 14.6846 15.0316C14.5277 14.9937 14.4034 14.9505 14.4142 14.9289C14.425 14.9126 14.5548 14.6639 14.7116 14.3827C15.1388 13.5986 15.155 13.696 14.4412 12.993L13.8248 12.382L13.9005 12.0467C14.0681 11.3221 14.5223 10.7111 15.1226 10.4082C15.3767 10.2839 15.5065 10.2514 15.8201 10.2514L16.2041 10.246L16.2852 10.5705C16.3501 10.8408 16.3555 10.949 16.296 11.2464C16.1878 11.8196 15.8472 12.3765 15.4308 12.6631L15.2956 12.7551L15.4308 12.8686C15.5065 12.9335 15.7931 13.1714 16.0743 13.3986C17.6424 14.6801 18.1778 15.4209 18.3562 16.5889C18.4157 16.9783 18.3562 17.6218 18.2373 17.8435C18.2156 17.8867 18.1399 18.0435 18.0696 18.195C17.9128 18.5464 17.1504 19.3089 16.6475 19.6279C16.4366 19.7631 16.2581 19.8821 16.2419 19.8983C16.2257 19.9199 15.9715 20.0767 15.6795 20.2498C14.3439 21.0393 13.7329 21.726 13.5923 22.5696C13.4895 23.2239 13.7761 23.9971 14.3493 24.5974C14.5223 24.7812 14.6359 24.9272 14.598 24.9272C14.4845 24.9272 13.7977 24.5541 13.5003 24.327C12.8893 23.8674 12.4567 23.0508 12.4567 22.3479C12.4567 21.5205 12.8568 20.731 13.7815 19.7415C14.4034 19.0818 14.4466 18.9898 13.9654 19.3684C13.722 19.5522 13.6193 19.5684 13.6734 19.3954C13.8194 18.9304 13.8464 18.3031 13.7329 18.0327C13.4787 17.4217 12.8082 17.6488 12.3864 18.487C12.2891 18.6762 12.0998 18.952 11.9592 19.0926C11.7267 19.3359 11.6888 19.3576 11.4455 19.3576C11.2887 19.3576 11.094 19.3143 10.9696 19.2494C10.6398 19.0818 10.4722 19.1034 10.2288 19.363C10.1099 19.4873 10.0017 19.5684 9.98008 19.5468C9.95845 19.5252 9.94223 19.2981 9.94223 19.0331C9.94223 18.6005 9.95305 18.541 10.072 18.4167C10.1477 18.3355 10.2613 18.2761 10.3478 18.2761C10.4938 18.2761 10.9805 18.4221 11.0778 18.4924C11.1048 18.514 11.2076 18.5518 11.3049 18.5735C11.4996 18.6113 11.5212 18.5951 11.97 18.0598C12.2512 17.7299 12.3161 17.6326 12.2782 17.5893C12.2242 17.5352 11.9159 17.7569 11.9159 17.8489C11.9159 17.9084 11.8673 17.9516 11.7916 17.9624C11.7267 17.9732 11.678 18.0003 11.6888 18.0327C11.6997 18.0598 11.651 18.0976 11.5861 18.1138C11.5212 18.1301 11.4401 18.1895 11.4077 18.249C11.3752 18.3085 11.3428 18.368 11.3374 18.3788C11.3049 18.4275 11.1481 18.2436 11.0778 18.076C11.0075 17.903 10.9913 17.8975 10.7047 17.8975C10.4181 17.8975 10.4019 17.903 10.4019 18.0327V18.1679L10.0936 18.0273C9.9206 17.9516 9.72593 17.8381 9.65564 17.7732C9.53667 17.665 9.32038 17.2432 9.32038 17.1297C9.32038 17.1026 9.13112 16.8918 8.8986 16.6646C8.25511 16.032 8.27133 16.1293 8.73637 15.6102C8.95267 15.3669 9.38527 14.8802 9.68808 14.5287L10.2396 13.896V13.3553C10.2396 12.7551 10.1802 12.9011 10.9102 11.679C11.24 11.1274 11.3536 10.8841 11.386 10.657C11.5699 9.50519 12.2999 8.52645 13.4408 7.89918C13.6085 7.80726 13.7599 7.73155 13.7761 7.73155C13.7923 7.73155 13.695 7.8343 13.5652 7.95326C12.9596 8.51023 12.554 9.31593 12.4837 10.1108L12.4513 10.4623L12.6838 10.0027C13.3381 8.72652 14.0357 8.03437 15.1604 7.5477C15.712 7.30437 16.7556 7.19081 17.5127 7.28274ZM15.036 10.9328C14.9063 11.0031 14.7278 11.3005 14.7278 11.4519C14.7278 11.6141 14.8197 11.7871 14.9063 11.7871C14.9495 11.7871 15.0577 11.6465 15.155 11.4681C15.2794 11.2518 15.4038 11.1112 15.5443 11.0301C15.6633 10.9652 15.7444 10.8895 15.7228 10.8625C15.6903 10.803 15.1875 10.8571 15.036 10.9328Z" fill="black"/>
<path d="M12.7811 12.9066C12.7811 12.9228 12.6081 13.1716 12.3918 13.469C12.116 13.8421 11.97 14.0043 11.8889 14.0043C11.6077 14.0043 11.5482 14.0692 11.2833 14.5883L11.0237 15.1074L11.0075 14.6262C10.9913 14.1557 10.9967 14.1449 11.1697 13.9286C11.3211 13.7447 11.3536 13.6528 11.3752 13.3554L11.4022 13.0039L11.6997 13.0201C11.8619 13.031 12.1755 13.0039 12.3864 12.9607C12.6027 12.9174 12.7811 12.8958 12.7811 12.9066ZM11.6942 13.4041C11.6726 13.4203 11.6402 13.4906 11.6185 13.5555C11.5915 13.6474 11.6077 13.6799 11.6726 13.6799C11.8132 13.6799 12.0241 13.5122 12.0241 13.4041C12.0241 13.3176 11.9971 13.3067 11.8727 13.3338C11.7916 13.3554 11.7105 13.3824 11.6942 13.4041Z" fill="black"/>
<path d="M12.0187 16.1995C11.6239 16.4969 11.0832 16.6646 10.5641 16.6483C10.3802 16.6429 10.3856 16.6375 10.6452 16.5672C11.1697 16.4158 11.943 16.1563 11.9916 16.1076C12.0241 16.0806 12.0836 16.0589 12.1268 16.0589C12.1701 16.0589 12.1214 16.1238 12.0187 16.1995Z" fill="#282827"/>
<path d="M11.916 16.6862C11.7483 16.8809 11.4077 16.9945 10.8885 17.0161C10.6019 17.0323 10.3154 17.0161 10.2397 16.9837C10.1207 16.9404 10.1423 16.9296 10.3965 16.9296C10.748 16.9242 11.4996 16.7836 11.7375 16.6754C11.9538 16.5781 12.0025 16.5781 11.916 16.6862Z" fill="#282827"/>
<path d="M9.61337 6.43288C9.69116 6.44556 9.75962 6.46776 9.76896 6.47728C9.79385 6.50899 9.92143 6.57559 9.95566 6.57559C9.97433 6.57559 10.0615 6.65171 10.1517 6.74051C10.3166 6.91177 10.4535 7.13695 10.4535 7.24161C10.4535 7.27649 10.466 7.30821 10.4784 7.31772C10.494 7.32724 10.522 7.5873 10.5438 7.8981C10.5656 8.20891 10.5967 8.49751 10.6091 8.54192C10.6247 8.58632 10.6465 8.6656 10.6558 8.72269C10.6683 8.77661 10.718 8.88126 10.7678 8.95104C10.8176 9.02398 10.8581 9.09058 10.8581 9.1001C10.8581 9.15084 11.2875 9.46799 11.5209 9.58851C11.636 9.64876 11.8601 9.87077 11.9036 9.96908C11.9908 10.1657 12.0094 10.2355 12.0094 10.3655C12.0094 10.4416 11.997 10.5146 11.9783 10.5241C11.9627 10.5336 11.9472 10.5717 11.9472 10.6066C11.9472 10.6922 11.8912 10.7842 11.7449 10.9332C11.4773 11.2123 11.1506 11.2599 10.7927 11.0759C10.606 10.9808 10.1486 10.4987 9.93699 10.1752C9.63826 9.71854 9.52001 9.31576 9.5169 8.74806C9.5169 8.54826 9.52935 8.3326 9.54802 8.266C9.6227 7.96788 9.68494 7.59047 9.68494 7.42238C9.68183 7.25112 9.63826 7.13695 9.53246 7.02912C9.47023 6.96251 9.27107 6.86103 9.20884 6.86103C9.17772 6.86103 9.14038 6.84517 9.13104 6.82931C9.12171 6.81028 9.07192 6.7976 9.02213 6.7976C8.8292 6.7976 8.77941 6.53119 8.95056 6.43605C9.0408 6.38848 9.35509 6.38848 9.61337 6.43288Z" fill="black"/>
<defs>
<linearGradient id="paint0_linear_569_3120" x1="15.1817" y1="9.05859" x2="15.4886" y2="25.7309" gradientUnits="userSpaceOnUse">
<stop stop-color="#F7DFBC"/>
<stop offset="1" stop-color="#FDF8F1" stop-opacity="0"/>
</linearGradient>
</defs>
</svg>
