<svg width="64" height="64" viewBox="0 0 64 64" fill="none" xmlns="http://www.w3.org/2000/svg">
<circle cx="32" cy="32.0002" r="31.6734" transform="rotate(90.5938 32 32.0002)" fill="#F7DFBC"/>
<path d="M28.3178 49.2121C29.4634 50.0304 32.4773 50.5077 33.8411 50.6441L32.2046 49.2121L31.7954 47.371V44.3025L32.8183 42.8705L35.6822 40.4157L39.569 35.7106L40.5919 34.074L43.2513 33.6649L42.6376 30.1872V26.7096L42.433 24.8684L38.3416 22.2091L36.0914 19.9588L34.6594 18.1177H32L29.3406 18.3222L26.2721 20.9816L24.431 21.3908L22.999 21.7999L22.1807 23.2319L20.7487 26.3004V28.3461L18.4985 30.5964L17.4756 32.4375L19.3167 34.074L20.135 34.8923L22.1807 35.3014L25.2492 34.074H26.6812L28.1132 35.3014L28.9315 37.1426H31.1817L30.568 39.1883L26.2721 42.4614V46.1436C26.4766 46.8255 27.1722 48.3938 28.3178 49.2121Z" fill="url(#paint0_linear_569_3130)"/>
<path d="M35.0254 14.566C36.6043 14.7498 38.7349 15.7015 40.1516 16.8263C40.6383 17.2264 41.0168 17.5617 40.9952 17.5833C40.9735 17.6049 40.6924 17.486 40.3679 17.3129C39.1458 16.6532 37.7183 16.2423 36.2583 16.1341C35.1227 16.0476 33.468 16.1341 32.8083 16.318C31.3807 16.7181 30.429 17.075 30.429 17.2156C30.429 17.3238 30.5588 17.3129 31.2401 17.1832C32.884 16.8587 35.1768 16.8803 36.7017 17.2372C37.9778 17.5292 38.2698 17.6158 39.0918 17.9618C42.1416 19.2488 44.5641 21.4983 45.7862 24.1696C46.2296 25.1321 46.2728 25.2403 46.4783 25.9216C46.7379 26.7651 46.6838 26.9382 46.3702 26.3326C45.9051 25.4674 45.6131 25.0888 44.7804 24.2453C43.3961 22.8285 41.8928 22.0066 39.7839 21.4875C38.2374 21.109 37.7291 21.1522 38.9187 21.574C42.055 22.6771 44.7804 25.0348 46.0782 27.7926C47.5274 30.8532 47.5706 33.957 46.2188 37.0177C46.089 37.3097 45.97 37.526 45.9592 37.5043C45.9376 37.4827 45.97 37.0609 46.0133 36.5526C46.1106 35.6225 45.97 33.4163 45.797 32.9621C45.7429 32.8215 45.6131 32.443 45.5158 32.1185C45.2671 31.3615 44.7912 30.4747 44.2937 29.8582C44.0774 29.577 43.8828 29.3391 43.8719 29.3175C43.8503 29.2958 43.807 29.2958 43.7746 29.3283C43.7422 29.3607 43.8395 29.7501 43.9909 30.1826C44.6506 32.151 44.8885 34.0652 44.6939 35.9037C44.5965 36.9636 44.3694 38.0883 44.1748 38.5534C44.1207 38.6723 43.926 39.1374 43.7313 39.5916C43.5475 40.0458 43.0716 40.9759 42.6931 41.6464C41.2439 44.1987 40.6275 45.6155 40.422 46.8268L40.3463 47.3134L40.1949 46.7727C40.011 46.1022 40.0651 44.4583 40.3247 42.7171C40.5842 40.9543 40.6491 39.1266 40.4869 38.4236C40.3355 37.818 40.1624 37.7531 40.1624 38.3046C40.1624 38.6183 39.9245 39.6132 39.7407 40.0675C39.4595 40.738 38.9187 41.8303 38.5618 42.4143C38.3347 42.7928 38.0103 43.4309 37.8264 43.8527C37.5452 44.534 37.5128 44.7287 37.5128 45.7453C37.5236 46.9349 37.6317 47.3134 38.2266 48.2219C38.4537 48.5571 38.4537 48.5788 38.259 48.4706C38.1509 48.4057 37.6534 47.9839 37.1667 47.5405C35.5769 46.0589 34.8848 44.6746 35.166 43.5607C35.2308 43.3119 35.2633 43.074 35.22 43.0415C35.1227 42.9442 33.587 44.653 33.2409 45.2694C32.8299 45.9724 32.4839 47.0431 32.4839 47.5838C32.4839 48.3949 32.884 49.325 33.5545 50.0928L33.9979 50.5903L33.2193 50.2875C31.251 49.5305 30.0181 48.5463 29.3259 47.1728C29.0339 46.578 28.9907 46.3942 28.9907 45.5939C28.9907 44.7719 29.0231 44.6313 29.3475 44.0473C29.8667 43.1172 30.6237 42.4143 32.2135 41.3761C35.4147 39.2888 36.3123 38.5858 37.1126 37.526C38.086 36.2498 38.5835 34.0868 38.3455 32.2591C38.2266 31.3398 37.8589 30.2043 37.5128 29.6635C37.4263 29.5338 37.264 29.285 37.1559 29.1228L36.972 28.82L37.2965 29.0579C37.7615 29.3932 38.6592 30.3557 39.0918 30.983C39.5135 31.5886 40.1624 32.8972 40.1624 33.1351C40.1624 33.2216 40.2057 33.3298 40.2706 33.3622C40.3247 33.3947 40.3787 33.5353 40.3787 33.665C40.3787 33.8273 40.4112 33.8597 40.4977 33.7732C40.5842 33.6867 40.5842 33.5461 40.5085 33.2865C40.4436 33.0919 40.3679 32.6917 40.3247 32.3997C40.2814 32.1077 40.2165 31.7941 40.1624 31.6967C40.1084 31.5994 39.9894 31.275 39.8812 30.983C39.3081 29.3499 37.5344 27.2302 35.9446 26.2677C35.1011 25.7702 33.7492 25.1537 33.1868 25.0348C32.884 24.9699 32.8732 24.9591 33.0787 24.8401C33.2193 24.7536 33.8574 24.7103 34.8631 24.7103C36.3123 24.7103 36.4854 24.7428 37.1775 25.0131C39.6758 25.9973 41.4278 28.3117 41.7198 31.0154C41.8063 31.8157 41.9469 32.2591 42.0334 32.0104C42.0659 31.9238 42.1416 31.4047 42.2173 30.864C42.4011 29.3932 42.1199 27.652 41.4818 26.2893C40.2706 23.6937 37.7075 21.9417 34.8523 21.7687L33.8249 21.7038L33.6194 20.8278C33.2842 19.3461 33.0895 19.1407 31.9215 19.1407C30.4831 19.1407 29.0772 19.7679 27.9416 20.9035C27.5306 21.3144 27.1629 21.747 27.1305 21.8552C27.0656 22.0499 26.9358 22.0607 25.346 22.0607H23.6265L23.0208 23.034C22.6964 23.5748 22.1989 24.4075 21.9177 24.905C21.4094 25.7918 21.4094 25.7918 21.3662 26.9814L21.3229 28.1603L20.8795 28.7226C20.6307 29.0363 19.9278 29.8474 19.3113 30.5395C18.2623 31.7075 18.046 32.1077 18.5435 31.9563C18.6624 31.913 19.1924 31.9238 19.7223 31.9671L20.6956 32.0428L20.209 32.5727C19.7764 33.0594 19.7223 33.1676 19.7223 33.6326C19.7223 34.1193 19.7439 34.1625 20.1224 34.3464C20.4469 34.5086 20.7713 34.5519 21.669 34.541C22.9992 34.541 23.129 34.487 24.6971 33.319C25.8543 32.443 25.876 32.4321 27.044 32.9945C28.1903 33.5461 29.0339 34.6384 29.3475 35.9794C29.4124 36.2931 29.5098 36.5526 29.553 36.5526C29.5855 36.5526 29.7369 36.2931 29.8883 35.9794C30.1154 35.5036 30.1587 35.2656 30.1587 34.3896C30.1587 33.4704 30.1262 33.2973 29.845 32.735C29.4341 31.9347 28.4607 31.0046 27.5955 30.5936L26.9142 30.2692L27.4549 30.3341C29.6179 30.6044 31.6619 32.2591 32.1919 34.1733C32.2459 34.3788 32.3216 35.0385 32.3649 35.6334L32.4298 36.7148L32.6353 36.2822C33.3599 34.6925 33.2842 33.2433 32.4082 31.9887C31.7809 31.0803 30.6561 30.3665 29.3692 30.0637C29.0555 29.988 28.8068 29.9015 28.8284 29.8582C28.8501 29.8258 29.1096 29.3283 29.4232 28.7659C30.2776 27.1977 30.3101 27.3924 28.8825 25.9865L27.6496 24.7644L27.801 24.0939C28.1363 22.6447 29.0447 21.4226 30.2452 20.817C30.7535 20.5682 31.013 20.5033 31.6403 20.5033L32.4082 20.4925L32.5704 21.1414C32.7002 21.6822 32.711 21.8984 32.592 22.4933C32.3757 23.6396 31.6944 24.7536 30.8616 25.3268L30.5913 25.5106L30.8616 25.7377C31.013 25.8675 31.5862 26.3434 32.1486 26.7976C35.2849 29.3607 36.3556 30.8424 36.7125 33.1784C36.8314 33.957 36.7125 35.244 36.4746 35.6874C36.4313 35.7739 36.2799 36.0876 36.1393 36.3904C35.8257 37.0934 34.3008 38.6183 33.295 39.2563C32.8732 39.5267 32.5163 39.7646 32.4839 39.7971C32.4514 39.8403 31.9431 40.154 31.3591 40.5C28.6878 42.079 27.4658 43.4525 27.1846 45.1396C26.9791 46.4482 27.5523 47.9948 28.6986 49.1952C29.0447 49.5629 29.2718 49.8549 29.1961 49.8549C28.969 49.8549 27.5955 49.1087 27.0007 48.6545C25.7786 47.7352 24.9134 46.1022 24.9134 44.6962C24.9134 43.0415 25.7137 41.4626 27.5631 39.4834C28.8068 38.164 28.8933 37.9802 27.9308 38.7372C27.4441 39.1049 27.2386 39.1374 27.3468 38.7913C27.6388 37.8612 27.6929 36.6067 27.4658 36.0659C26.9575 34.8439 25.6164 35.2981 24.7728 36.9744C24.5782 37.3529 24.1997 37.9045 23.9185 38.1857C23.4534 38.6723 23.3777 38.7156 22.8911 38.7156C22.5774 38.7156 22.1881 38.6291 21.9393 38.4993C21.2796 38.164 20.9444 38.2073 20.4577 38.7264C20.2198 38.9751 20.0035 39.1374 19.9602 39.0941C19.917 39.0509 19.8845 38.5966 19.8845 38.0667C19.8845 37.2015 19.9061 37.0825 20.1441 36.8338C20.2955 36.6716 20.5226 36.5526 20.6956 36.5526C20.9876 36.5526 21.961 36.8446 22.1556 36.9852C22.2097 37.0285 22.4152 37.1042 22.6099 37.1474C22.9992 37.2231 23.0425 37.1907 23.9401 36.12C24.5025 35.4603 24.6323 35.2656 24.5565 35.1791C24.4484 35.071 23.8319 35.5144 23.8319 35.6982C23.8319 35.8172 23.7346 35.9037 23.5832 35.9254C23.4534 35.947 23.3561 36.0011 23.3777 36.0659C23.3994 36.12 23.302 36.1957 23.1722 36.2282C23.0425 36.2606 22.8802 36.3796 22.8153 36.4985C22.7505 36.6175 22.6856 36.7365 22.6748 36.7581C22.6099 36.8554 22.2962 36.4877 22.1556 36.1525C22.015 35.8064 21.9826 35.7956 21.4094 35.7956C20.8362 35.7956 20.8038 35.8064 20.8038 36.0659V36.3363L20.1873 36.0551C19.8413 35.9037 19.4519 35.6766 19.3113 35.5468C19.0734 35.3305 18.6408 34.487 18.6408 34.2599C18.6408 34.2058 18.2623 33.784 17.7972 33.3298C16.5103 32.0644 16.5427 32.2591 17.4728 31.2209C17.9054 30.7342 18.7706 29.7609 19.3762 29.0579L20.4793 27.7926V26.7111C20.4793 25.5106 20.3604 25.8026 21.8204 23.3585C22.4801 22.2553 22.7072 21.7687 22.7721 21.3144C23.1398 19.0109 24.5998 17.0534 26.8817 15.7989C27.217 15.615 27.5198 15.4636 27.5523 15.4636C27.5847 15.4636 27.39 15.6691 27.1305 15.907C25.9192 17.0209 25.1081 18.6324 24.9675 20.2221L24.9026 20.9251L25.3677 20.0058C26.6763 17.4535 28.0714 16.0692 30.3209 15.0959C31.424 14.6092 33.5113 14.3821 35.0254 14.566ZM30.0721 21.866C29.8126 22.0066 29.4557 22.6014 29.4557 22.9042C29.4557 23.2287 29.6395 23.5748 29.8126 23.5748C29.8991 23.5748 30.1154 23.2936 30.3101 22.9367C30.5588 22.5041 30.8076 22.2229 31.0887 22.0607C31.3267 21.9309 31.4889 21.7795 31.4456 21.7254C31.3807 21.6064 30.375 21.7146 30.0721 21.866Z" fill="black"/>
<path d="M25.5623 25.8132C25.5623 25.8456 25.2163 26.3431 24.7837 26.9379C24.2321 27.6842 23.9401 28.0086 23.7779 28.0086C23.2155 28.0086 23.0966 28.1384 22.5666 29.1766L22.0475 30.2148L22.0151 29.2523C21.9826 28.3114 21.9934 28.2898 22.3395 27.8572C22.6423 27.4895 22.7072 27.3056 22.7505 26.7108L22.8046 26.0079L23.3994 26.0403C23.7238 26.0619 24.3511 26.0079 24.7729 25.9213C25.2055 25.8348 25.5623 25.7916 25.5623 25.8132ZM23.3886 26.8082C23.3453 26.8406 23.2804 26.9812 23.2371 27.111C23.1831 27.2948 23.2155 27.3597 23.3453 27.3597C23.6265 27.3597 24.0483 27.0245 24.0483 26.8082C24.0483 26.6351 23.9942 26.6135 23.7454 26.6676C23.5832 26.7108 23.421 26.7649 23.3886 26.8082Z" fill="black"/>
<path d="M24.0374 32.3995C23.2479 32.9943 22.1664 33.3296 21.1282 33.2972C20.7605 33.2863 20.7713 33.2755 21.2904 33.1349C22.3395 32.8321 23.886 32.313 23.9833 32.2157C24.0482 32.1616 24.1672 32.1183 24.2537 32.1183C24.3402 32.1183 24.2429 32.2481 24.0374 32.3995Z" fill="#282827"/>
<path d="M23.832 33.373C23.4967 33.7623 22.8154 33.9894 21.7771 34.0327C21.2039 34.0651 20.6308 34.0327 20.4793 33.9678C20.2414 33.8813 20.2847 33.8596 20.793 33.8596C21.4959 33.8488 22.9992 33.5676 23.4751 33.3513C23.9077 33.1567 24.005 33.1567 23.832 33.373Z" fill="#282827"/>
<path d="M19.2268 12.8662C19.3824 12.8916 19.5193 12.936 19.538 12.955C19.5878 13.0185 19.8429 13.1517 19.9114 13.1517C19.9487 13.1517 20.123 13.3039 20.3035 13.4815C20.6333 13.824 20.9071 14.2744 20.9071 14.4837C20.9071 14.5535 20.932 14.6169 20.9569 14.6359C20.9881 14.655 21.0441 15.1751 21.0876 15.7967C21.1312 16.4183 21.1934 16.9955 21.2183 17.0843C21.2494 17.1731 21.293 17.3317 21.3117 17.4459C21.3366 17.5537 21.4361 17.763 21.5357 17.9026C21.6353 18.0485 21.7162 18.1817 21.7162 18.2007C21.7162 18.3022 22.5751 18.9365 23.0418 19.1775C23.2721 19.298 23.7202 19.742 23.8073 19.9387C23.9816 20.3319 24.0189 20.4715 24.0189 20.7315C24.0189 20.8838 23.994 21.0297 23.9567 21.0487C23.9256 21.0677 23.8944 21.1438 23.8944 21.2136C23.8944 21.3849 23.7824 21.5688 23.4899 21.8669C22.9547 22.4251 22.3012 22.5203 21.5855 22.1524C21.2121 21.9621 20.2972 20.9979 19.874 20.351C19.2766 19.4376 19.0401 18.632 19.0339 17.4966C19.0339 17.097 19.0588 16.6657 19.0961 16.5325C19.2455 15.9362 19.3699 15.1814 19.3699 14.8452C19.3637 14.5027 19.2766 14.2744 19.065 14.0587C18.9405 13.9255 18.5422 13.7225 18.4177 13.7225C18.3555 13.7225 18.2808 13.6908 18.2621 13.6591C18.2435 13.6211 18.1439 13.5957 18.0443 13.5957C17.6585 13.5957 17.5589 13.0629 17.9012 12.8726C18.0817 12.7774 18.7102 12.7774 19.2268 12.8662Z" fill="black"/>
<defs>
<linearGradient id="paint0_linear_569_3130" x1="30.3635" y1="18.1177" x2="30.9772" y2="51.4624" gradientUnits="userSpaceOnUse">
<stop stop-color="#F7DFBC"/>
<stop offset="1" stop-color="#FDF8F1" stop-opacity="0"/>
</linearGradient>
</defs>
</svg>
