<svg width="512" height="512" viewBox="0 0 512 512" fill="none" xmlns="http://www.w3.org/2000/svg">
<circle cx="256" cy="256" r="253.387" transform="rotate(90.5938 256 256)" fill="#F7DFBC"/>
<path d="M226.542 393.694C235.707 400.24 259.819 404.058 270.729 405.149L257.636 393.694L254.363 378.965V354.416L262.546 342.961L285.458 323.322L316.552 285.681L324.735 272.589L346.01 269.316L341.1 241.494V213.673L339.464 198.944L306.733 177.669L288.731 159.667L277.275 144.938H256L234.725 146.575L210.177 167.85L195.448 171.123L183.992 174.396L177.446 185.852L165.99 210.4V226.765L147.988 244.768L139.805 259.496L154.534 272.589L161.08 279.135L177.446 282.408L201.994 272.589H213.45L224.905 282.408L231.452 297.137H249.454L244.544 313.503L210.177 339.687V369.145C211.813 374.6 217.377 387.147 226.542 393.694Z" fill="url(#paint0_linear_569_3160)"/>
<path d="M280.203 116.523C292.835 117.994 309.879 125.607 321.213 134.605C325.106 137.806 328.134 140.489 327.961 140.662C327.788 140.835 325.539 139.883 322.943 138.499C313.167 133.221 301.746 129.933 290.066 129.068C280.981 128.376 267.744 129.068 262.466 130.539C251.046 133.74 243.432 136.595 243.432 137.72C243.432 138.585 244.47 138.499 249.921 137.46C263.072 134.865 281.414 135.038 293.613 137.893C303.822 140.229 306.158 140.921 312.734 143.69C337.132 153.986 356.513 171.982 366.289 193.352C369.837 201.052 370.183 201.917 371.826 207.368C373.903 214.116 373.47 215.501 370.961 210.656C367.241 203.734 364.905 200.706 358.243 193.957C347.169 182.623 335.142 176.048 318.271 171.895C305.899 168.867 301.832 169.213 311.35 172.587C336.44 181.412 358.243 200.273 368.625 222.336C380.219 246.82 380.565 271.651 369.75 296.136C368.712 298.472 367.76 300.203 367.674 300.03C367.501 299.857 367.76 296.482 368.106 292.416C368.885 284.975 367.76 267.326 366.376 263.692C365.943 262.567 364.905 259.539 364.126 256.943C362.136 250.887 358.329 243.792 354.35 238.861C352.619 236.611 351.062 234.708 350.975 234.535C350.802 234.362 350.456 234.362 350.197 234.621C349.937 234.881 350.716 237.996 351.927 241.456C357.205 257.203 359.108 272.517 357.551 287.225C356.772 295.704 354.955 304.702 353.398 308.422C352.965 309.374 351.408 313.094 349.851 316.728C348.38 320.362 344.573 327.802 341.545 333.167C329.951 353.585 325.02 364.919 323.376 374.609L322.77 378.503L321.559 374.177C320.088 368.812 320.521 355.661 322.597 341.732C324.674 327.629 325.193 313.008 323.895 307.384C322.684 302.539 321.299 302.02 321.299 306.432C321.299 308.941 319.396 316.901 317.925 320.535C315.676 325.899 311.35 334.637 308.494 339.309C306.678 342.338 304.082 347.442 302.611 350.816C300.362 356.267 300.102 357.824 300.102 365.957C300.189 375.474 301.054 378.503 305.812 385.77C307.629 388.452 307.629 388.625 306.072 387.76C305.207 387.241 301.227 383.867 297.334 380.319C284.615 368.466 279.078 357.392 281.327 348.48C281.847 346.49 282.106 344.587 281.76 344.327C280.981 343.549 268.696 357.219 265.927 362.15C262.639 367.774 259.871 376.34 259.871 380.665C259.871 387.154 263.072 394.595 268.436 400.738L271.983 404.718L265.754 402.295C250.008 396.239 240.144 388.366 234.607 377.378C232.271 372.619 231.925 371.148 231.925 364.746C231.925 358.171 232.185 357.046 234.78 352.374C238.933 344.933 244.989 339.309 257.708 331.004C283.317 314.305 290.498 308.682 296.901 300.203C304.688 289.994 308.668 272.69 306.764 258.068C305.812 250.714 302.871 241.629 300.102 237.303C299.41 236.265 298.112 234.275 297.247 232.977L295.776 230.555L298.372 232.458C302.092 235.14 309.273 242.841 312.734 247.859C316.108 252.704 321.299 263.173 321.299 265.076C321.299 265.768 321.645 266.633 322.164 266.893C322.597 267.152 323.03 268.277 323.03 269.315C323.03 270.613 323.289 270.873 323.981 270.181C324.674 269.488 324.674 268.364 324.068 266.287C323.549 264.73 322.943 261.529 322.597 259.193C322.251 256.857 321.732 254.348 321.299 253.569C320.867 252.79 319.915 250.195 319.05 247.859C314.464 234.794 300.275 217.837 287.557 210.136C280.808 206.157 269.993 201.225 265.494 200.273C263.072 199.754 262.985 199.668 264.629 198.716C265.754 198.024 270.859 197.678 278.905 197.678C290.498 197.678 291.883 197.937 297.42 200.1C317.406 207.973 331.422 226.489 333.758 248.118C334.45 254.521 335.575 258.068 336.267 256.078C336.527 255.386 337.132 251.233 337.738 246.907C339.209 235.14 336.959 221.211 331.855 210.309C322.164 189.545 301.659 175.529 278.818 174.144L270.599 173.625L268.955 166.617C266.273 154.764 264.716 153.12 255.372 153.12C243.865 153.12 232.617 158.138 223.533 167.223C220.245 170.511 217.303 173.971 217.044 174.837C216.525 176.394 215.486 176.481 202.768 176.481H189.012L184.167 184.267C181.571 188.593 177.591 195.255 175.342 199.235C171.275 206.33 171.275 206.33 170.929 215.847L170.583 225.277L167.036 229.776C165.046 232.285 159.422 238.774 154.49 244.311C146.098 253.656 144.368 256.857 148.348 255.645C149.299 255.299 153.539 255.386 157.778 255.732L165.565 256.338L161.672 260.577C158.211 264.47 157.778 265.336 157.778 269.056C157.778 272.949 157.951 273.295 160.979 274.766C163.575 276.064 166.171 276.41 173.352 276.323C183.993 276.323 185.032 275.891 197.577 266.547C206.835 259.539 207.008 259.452 216.352 263.951C225.523 268.364 232.271 277.102 234.78 287.831C235.299 290.34 236.078 292.416 236.424 292.416C236.684 292.416 237.895 290.34 239.106 287.831C240.923 284.024 241.269 282.12 241.269 275.112C241.269 267.758 241.01 266.374 238.76 261.875C235.472 255.472 227.686 248.032 220.764 244.744L215.313 242.148L219.639 242.668C236.943 244.831 253.295 258.068 257.535 273.382C257.967 275.026 258.573 280.303 258.919 285.062L259.438 293.714L261.082 290.253C266.879 277.535 266.273 265.941 259.265 255.905C254.247 248.637 245.249 242.927 234.953 240.505C232.444 239.899 230.454 239.207 230.627 238.861C230.8 238.601 232.877 234.621 235.386 230.122C242.221 217.577 242.48 219.134 231.06 207.887L221.197 198.11L222.408 192.746C225.09 181.153 232.358 171.376 241.961 166.531C246.028 164.541 248.104 164.022 253.122 164.022L259.265 163.935L260.563 169.126C261.601 173.452 261.688 175.183 260.736 179.941C259.006 189.112 253.555 198.024 246.893 202.609L244.73 204.08L246.893 205.897C248.104 206.935 252.69 210.742 257.189 214.376C282.279 234.881 290.845 246.734 293.7 265.422C294.651 271.651 293.7 281.947 291.796 285.495C291.45 286.187 290.239 288.696 289.114 291.118C286.605 296.742 274.406 308.941 266.36 314.046C262.985 316.209 260.13 318.112 259.871 318.372C259.611 318.718 255.545 321.227 250.873 323.995C229.503 336.627 219.726 347.615 217.476 361.112C215.832 371.581 220.418 383.953 229.589 393.557C232.358 396.498 234.175 398.834 233.569 398.834C231.752 398.834 220.764 392.865 216.006 389.231C206.229 381.877 199.307 368.812 199.307 357.565C199.307 344.327 205.71 331.696 220.505 315.863C230.454 305.307 231.146 303.837 223.446 309.893C219.553 312.835 217.909 313.094 218.774 310.325C221.11 302.885 221.543 292.849 219.726 288.523C215.659 278.746 204.931 282.38 198.183 295.79C196.625 298.818 193.597 303.231 191.348 305.48C187.627 309.374 187.022 309.72 183.128 309.72C180.619 309.72 177.505 309.028 175.515 307.989C170.237 305.307 167.555 305.653 163.661 309.806C161.758 311.796 160.028 313.094 159.682 312.748C159.336 312.402 159.076 308.768 159.076 304.529C159.076 297.607 159.249 296.655 161.152 294.666C162.364 293.368 164.181 292.416 165.565 292.416C167.901 292.416 175.688 294.752 177.245 295.877C177.678 296.223 179.321 296.829 180.879 297.175C183.993 297.78 184.34 297.521 191.521 288.955C196.02 283.678 197.058 282.12 196.452 281.428C195.587 280.563 190.655 284.11 190.655 285.581C190.655 286.533 189.877 287.225 188.666 287.398C187.627 287.571 186.849 288.004 187.022 288.523C187.195 288.955 186.416 289.561 185.378 289.82C184.34 290.08 183.042 291.032 182.523 291.983C182.004 292.935 181.484 293.887 181.398 294.06C180.879 294.839 178.37 291.897 177.245 289.215C176.12 286.446 175.861 286.36 171.275 286.36C166.69 286.36 166.43 286.446 166.43 288.523V290.686L161.499 288.436C158.73 287.225 155.615 285.408 154.49 284.37C152.587 282.639 149.126 275.891 149.126 274.074C149.126 273.641 146.098 270.267 142.378 266.633C132.082 256.511 132.342 258.068 139.782 249.762C143.243 245.869 150.164 238.082 155.01 232.458L163.835 222.336V213.684C163.835 204.08 162.883 206.416 174.563 186.863C179.841 178.038 181.657 174.144 182.177 170.511C185.118 152.082 196.798 136.422 215.054 126.386C217.736 124.915 220.158 123.704 220.418 123.704C220.678 123.704 219.12 125.348 217.044 127.251C207.354 136.163 200.865 149.054 199.74 161.772L199.221 167.396L202.941 160.042C213.41 139.623 224.571 128.549 242.567 120.762C251.392 116.869 268.09 115.052 280.203 116.523ZM240.577 174.923C238.501 176.048 235.645 180.806 235.645 183.229C235.645 185.825 237.116 188.593 238.501 188.593C239.193 188.593 240.923 186.344 242.48 183.489C244.47 180.028 246.46 177.778 248.71 176.481C250.613 175.442 251.911 174.231 251.565 173.798C251.046 172.847 243 173.712 240.577 174.923Z" fill="black"/>
<path d="M204.499 206.502C204.499 206.762 201.73 210.742 198.269 215.5C193.857 221.47 191.521 224.065 190.223 224.065C185.724 224.065 184.772 225.104 180.533 233.41L176.38 241.715L176.12 234.015C175.861 226.488 175.947 226.315 178.716 222.854C181.138 219.913 181.658 218.442 182.004 213.683L182.436 208.059L187.195 208.319C189.79 208.492 194.808 208.059 198.183 207.367C201.643 206.675 204.499 206.329 204.499 206.502ZM187.108 214.462C186.762 214.721 186.243 215.846 185.897 216.884C185.464 218.355 185.724 218.874 186.762 218.874C189.012 218.874 192.386 216.192 192.386 214.462C192.386 213.078 191.953 212.904 189.963 213.337C188.666 213.683 187.368 214.116 187.108 214.462Z" fill="black"/>
<path d="M192.299 259.195C185.983 263.953 177.331 266.635 169.026 266.376C166.084 266.289 166.17 266.203 170.323 265.078C178.716 262.655 191.088 258.503 191.867 257.724C192.386 257.291 193.337 256.945 194.03 256.945C194.722 256.945 193.943 257.983 192.299 259.195Z" fill="#282827"/>
<path d="M190.655 266.978C187.973 270.093 182.522 271.91 174.217 272.256C169.631 272.516 165.046 272.256 163.834 271.737C161.931 271.045 162.277 270.872 166.343 270.872C171.967 270.785 183.993 268.536 187.8 266.805C191.261 265.248 192.04 265.248 190.655 266.978Z" fill="#282827"/>
<path d="M153.814 102.927C155.059 103.13 156.154 103.486 156.304 103.638C156.702 104.145 158.743 105.211 159.291 105.211C159.59 105.211 160.984 106.429 162.428 107.85C165.066 110.59 167.257 114.193 167.257 115.867C167.257 116.425 167.456 116.933 167.655 117.085C167.904 117.237 168.352 121.398 168.701 126.371C169.049 131.344 169.547 135.962 169.746 136.672C169.995 137.383 170.344 138.651 170.493 139.565C170.692 140.427 171.489 142.102 172.286 143.218C173.082 144.385 173.73 145.451 173.73 145.603C173.73 146.415 180.6 151.489 184.334 153.418C186.177 154.382 189.761 157.934 190.458 159.507C191.852 162.653 192.151 163.769 192.151 165.85C192.151 167.068 191.952 168.235 191.653 168.387C191.404 168.539 191.155 169.148 191.155 169.706C191.155 171.076 190.259 172.548 187.919 174.933C183.637 179.398 178.41 180.16 172.684 177.216C169.697 175.694 162.378 167.981 158.992 162.805C154.213 155.498 152.321 149.054 152.271 139.97C152.271 136.774 152.47 133.323 152.769 132.257C153.964 127.487 154.959 121.449 154.959 118.76C154.91 116.019 154.213 114.193 152.52 112.467C151.524 111.402 148.338 109.778 147.342 109.778C146.844 109.778 146.246 109.524 146.097 109.27C145.948 108.966 145.151 108.763 144.354 108.763C141.268 108.763 140.471 104.501 143.209 102.978C144.653 102.217 149.682 102.217 153.814 102.927Z" fill="black"/>
<defs>
<linearGradient id="paint0_linear_569_3160" x1="242.908" y1="144.938" x2="247.817" y2="411.696" gradientUnits="userSpaceOnUse">
<stop stop-color="#F7DFBC"/>
<stop offset="1" stop-color="#FDF8F1" stop-opacity="0"/>
</linearGradient>
</defs>
</svg>
