<svg width="128" height="128" viewBox="0 0 128 128" fill="none" xmlns="http://www.w3.org/2000/svg">
<circle cx="64" cy="63.9999" r="63.3469" transform="rotate(90.5938 64 63.9999)" fill="#F7DFBC"/>
<path d="M56.6355 98.4233C58.9267 100.06 64.9547 101.014 67.6822 101.287L64.4091 98.4233L63.5909 94.741V88.604L65.6366 85.74L71.3645 80.8304L79.1381 71.4202L81.1838 68.1471L86.5026 67.3288L85.2751 60.3735V53.4181L84.866 49.7359L76.6833 44.4171L72.1828 39.9166L69.3188 36.2344H64L58.6812 36.6435L52.5442 41.9623L48.8619 42.7806L45.998 43.5988L44.3614 46.4628L41.4974 52.5999V56.6912L36.9969 61.1918L34.9512 64.874L38.6335 68.1471L40.27 69.7836L44.3614 70.6019L50.4985 68.1471H53.3624L56.2264 70.6019L57.8629 74.2842H62.3635L61.136 78.3755L52.5442 84.9217V92.2862C52.9533 93.65 54.3444 96.7867 56.6355 98.4233Z" fill="url(#paint0_linear_569_3140)"/>
<path d="M70.0507 29.1305C73.2087 29.4982 77.4697 31.4016 80.3032 33.6511C81.2766 34.4514 82.0336 35.1219 81.9903 35.1652C81.9471 35.2084 81.3847 34.9705 80.7358 34.6244C78.2917 33.305 75.4365 32.4831 72.5165 32.2668C70.2454 32.0937 66.936 32.2668 65.6166 32.6345C62.7615 33.4348 60.8581 34.1486 60.8581 34.4297C60.8581 34.646 61.1176 34.6244 62.4803 34.3649C65.768 33.716 70.3535 33.7592 73.4033 34.473C75.9556 35.057 76.5396 35.2301 78.1835 35.9222C84.2831 38.4961 89.1282 42.9951 91.5723 48.3377C92.4592 50.2627 92.5457 50.479 92.9566 51.8417C93.4758 53.5288 93.3676 53.8749 92.7403 52.6636C91.8103 50.9333 91.2263 50.1762 89.5608 48.4891C86.7922 45.6556 83.7856 44.0117 79.5678 42.9735C76.4748 42.2165 75.4582 42.303 77.8374 43.1465C84.1101 45.3528 89.5608 50.0681 92.1563 55.5837C95.0547 61.7049 95.1413 67.9126 92.4375 74.0338C92.178 74.6178 91.94 75.0504 91.9184 75.0072C91.8752 74.9639 91.94 74.1204 92.0266 73.1038C92.2212 71.2436 91.94 66.8311 91.594 65.9227C91.4858 65.6415 91.2263 64.8845 91.0316 64.2356C90.5341 62.7215 89.5824 60.9478 88.5874 59.7149C88.1548 59.1526 87.7655 58.6767 87.7439 58.6335C87.7006 58.5902 87.6141 58.5902 87.5492 58.6551C87.4843 58.72 87.679 59.4986 87.9818 60.3638C89.3012 64.3005 89.7771 68.1289 89.3877 71.806C89.1931 73.9257 88.7388 76.1752 88.3495 77.1053C88.2414 77.3432 87.852 78.2733 87.4627 79.1817C87.095 80.0902 86.1433 81.9503 85.3862 83.2914C82.4878 88.396 81.2549 91.2295 80.844 93.652L80.6926 94.6254L80.3897 93.5439C80.022 92.2028 80.1302 88.9151 80.6493 85.4327C81.1684 81.9071 81.2982 78.2517 80.9737 76.8457C80.6709 75.6344 80.3249 75.5047 80.3249 76.6078C80.3249 77.2351 79.849 79.225 79.4813 80.1334C78.9189 81.4745 77.8374 83.6591 77.1236 84.8271C76.6694 85.5841 76.0205 86.8603 75.6528 87.7039C75.0904 89.0665 75.0256 89.4559 75.0256 91.4891C75.0472 93.8683 75.2635 94.6254 76.4531 96.4423C76.9074 97.1128 76.9074 97.1561 76.518 96.9398C76.3017 96.81 75.3067 95.9664 74.3334 95.0796C71.1538 92.1163 69.7695 89.3477 70.3319 87.1199C70.4617 86.6224 70.5266 86.1465 70.44 86.0816C70.2454 85.887 67.1739 89.3045 66.4818 90.5374C65.6599 91.9433 64.9677 94.0846 64.9677 95.1661C64.9677 96.7884 65.768 98.6485 67.1091 100.184L67.9959 101.179L66.4385 100.574C62.5019 99.0595 60.0361 97.0912 58.6518 94.3442C58.0678 93.1546 57.9813 92.7869 57.9813 91.1862C57.9813 89.5424 58.0462 89.2612 58.6951 88.0932C59.7333 86.233 61.2474 84.8271 64.427 82.7506C70.8294 78.5761 72.6247 77.1702 74.2253 75.0504C76.1719 72.4981 77.1669 68.1722 76.6911 64.5168C76.4531 62.6782 75.7177 60.4071 75.0256 59.3256C74.8525 59.0661 74.5281 58.5686 74.3118 58.2441L73.9441 57.6385L74.593 58.1143C75.523 58.7849 77.3183 60.7099 78.1835 61.9644C79.0271 63.1757 80.3249 65.7929 80.3249 66.2688C80.3249 66.4418 80.4114 66.6581 80.5412 66.723C80.6493 66.7879 80.7575 67.0691 80.7575 67.3286C80.7575 67.6531 80.8223 67.718 80.9954 67.5449C81.1684 67.3719 81.1684 67.0907 81.017 66.5716C80.8872 66.1822 80.7358 65.3819 80.6493 64.7979C80.5628 64.2139 80.433 63.5867 80.3249 63.392C80.2167 63.1973 79.9788 62.5484 79.7625 61.9644C78.6161 58.6983 75.0688 54.4589 71.8892 52.5339C70.2021 51.5389 67.4984 50.306 66.3736 50.0681C65.768 49.9383 65.7464 49.9167 66.1574 49.6787C66.4385 49.5057 67.7147 49.4192 69.7263 49.4192C72.6247 49.4192 72.9707 49.4841 74.355 50.0248C79.3515 51.9931 82.8555 56.6219 83.4395 62.0293C83.6126 63.6299 83.8938 64.5168 84.0668 64.0193C84.1317 63.8462 84.2831 62.808 84.4345 61.7265C84.8022 58.7849 84.2398 55.3025 82.9637 52.5771C80.5412 47.386 75.4149 43.882 69.7046 43.5359L67.6498 43.4061L67.2388 41.6541C66.5683 38.6908 66.179 38.2798 63.843 38.2798C60.9662 38.2798 58.1543 39.5344 55.8832 41.8055C55.0613 42.6274 54.3259 43.4926 54.261 43.7089C54.1312 44.0983 53.8716 44.1199 50.6921 44.1199H47.2529L46.0417 46.0666C45.3928 47.1481 44.3978 48.8135 43.8354 49.8085C42.8188 51.5822 42.8188 51.5822 42.7323 53.9614L42.6458 56.3191L41.759 57.4438C41.2615 58.0711 39.8555 59.6933 38.6226 61.0776C36.5246 63.4136 36.092 64.2139 37.0869 63.9111C37.3249 63.8246 38.3847 63.8462 39.4446 63.9327L41.3913 64.0842L40.4179 65.144C39.5527 66.1174 39.4446 66.3337 39.4446 67.2637C39.4446 68.2371 39.4878 68.3236 40.2449 68.6913C40.8938 69.0157 41.5427 69.1023 43.3379 69.0806C45.9984 69.0806 46.258 68.9725 49.3943 66.6365C51.7087 64.8845 51.7519 64.8628 54.0879 65.9876C56.3807 67.0907 58.0678 69.2753 58.6951 71.9574C58.8249 72.5847 59.0195 73.1038 59.106 73.1038C59.1709 73.1038 59.4737 72.5847 59.7766 71.9574C60.2308 71.0057 60.3173 70.5298 60.3173 68.7778C60.3173 66.9393 60.2524 66.5932 59.69 65.4685C58.8681 63.8679 56.9214 62.0077 55.1911 61.1858L53.8284 60.5369L54.9099 60.6667C59.2358 61.2074 63.3238 64.5167 64.3837 68.3452C64.4919 68.7562 64.6433 70.0756 64.7298 71.2652L64.8596 73.4282L65.2705 72.563C66.7197 69.3834 66.5683 66.4851 64.8163 63.976C63.5618 62.1591 61.3123 60.7315 58.7383 60.1259C58.1111 59.9745 57.6136 59.8015 57.6568 59.7149C57.7001 59.6501 58.2192 58.6551 58.8465 57.5303C60.5552 54.394 60.6201 54.7834 57.765 51.9715L55.2992 49.5273L55.602 48.1863C56.2725 45.2879 58.0894 42.8437 60.4903 41.6325C61.5069 41.135 62.0261 41.0052 63.2806 41.0052L64.8163 40.9836L65.1408 42.2814C65.4003 43.3628 65.4219 43.7954 65.184 44.9851C64.7514 47.2778 63.3887 49.5057 61.7232 50.6521L61.1825 51.0198L61.7232 51.474C62.0261 51.7336 63.1724 52.6853 64.2972 53.5937C70.5698 58.72 72.7112 61.6833 73.425 66.3553C73.6629 67.9126 73.425 70.4866 72.9491 71.3734C72.8626 71.5464 72.5598 72.1737 72.2786 72.7793C71.6513 74.1853 68.6015 77.2351 66.5899 78.5112C65.7464 79.052 65.0326 79.5278 64.9677 79.5927C64.9028 79.6792 63.8862 80.3065 62.7182 80.9986C57.3757 84.1566 54.9315 86.9036 54.3691 90.2778C53.9582 92.895 55.1045 95.9881 57.3973 98.389C58.0894 99.1244 58.5437 99.7084 58.3923 99.7084C57.938 99.7084 55.1911 98.2159 54.0014 97.3075C51.5572 95.4689 49.8269 92.2028 49.8269 89.391C49.8269 86.0816 51.4275 82.9237 55.1262 78.9654C57.6136 76.3266 57.7866 75.9589 55.8616 77.473C54.8882 78.2084 54.4773 78.2733 54.6936 77.5811C55.2776 75.721 55.3857 73.2119 54.9315 72.1304C53.9149 69.6863 51.2328 70.5947 49.5457 73.9473C49.1563 74.7044 48.3993 75.8075 47.8369 76.3699C46.9068 77.3432 46.7554 77.4297 45.7821 77.4297C45.1548 77.4297 44.3762 77.2567 43.8787 76.9971C42.5593 76.3266 41.8887 76.4131 40.9154 77.4513C40.4395 77.9488 40.0069 78.2733 39.9204 78.1868C39.8339 78.1002 39.769 77.1918 39.769 76.1319C39.769 74.4016 39.8123 74.1636 40.2881 73.6661C40.591 73.3417 41.0452 73.1038 41.3913 73.1038C41.9753 73.1038 43.9219 73.6878 44.3113 73.969C44.4194 74.0555 44.8304 74.2069 45.2197 74.2934C45.9984 74.4448 46.0849 74.3799 47.8802 72.2386C49.0049 70.9192 49.2645 70.5298 49.1131 70.3568C48.8968 70.1405 47.6639 71.0273 47.6639 71.395C47.6639 71.6329 47.4692 71.806 47.1664 71.8492C46.9068 71.8925 46.7122 72.0006 46.7554 72.1304C46.7987 72.2386 46.604 72.39 46.3445 72.4549C46.0849 72.5198 45.7605 72.7577 45.6307 72.9956C45.5009 73.2335 45.3711 73.4715 45.3495 73.5147C45.2197 73.7094 44.5925 72.974 44.3113 72.3035C44.0301 71.6113 43.9652 71.5897 42.8188 71.5897C41.6724 71.5897 41.6076 71.6113 41.6076 72.1304V72.6712L40.3747 72.1088C39.6825 71.806 38.9038 71.3518 38.6226 71.0922C38.1468 70.6596 37.2816 68.9725 37.2816 68.5183C37.2816 68.4101 36.5246 67.5665 35.5945 66.6581C33.0205 64.1274 33.0854 64.5168 34.9456 62.4403C35.8108 61.467 37.5412 59.5203 38.7524 58.1143L40.9587 55.5837V53.4207C40.9587 51.0198 40.7207 51.6038 43.6408 46.7155C44.9602 44.5092 45.4144 43.5359 45.5442 42.6274C46.2796 38.0203 49.1996 34.1053 53.7635 31.5962C54.434 31.2285 55.0396 30.9257 55.1045 30.9257C55.1694 30.9257 54.7801 31.3367 54.261 31.8125C51.8384 34.0404 50.2162 37.2633 49.935 40.4428L49.8052 41.8488L50.7353 40.0102C53.3525 34.9056 56.1428 32.137 60.6418 30.1903C62.848 29.217 67.0225 28.7628 70.0507 29.1305ZM60.1443 43.7305C59.6252 44.0117 58.9114 45.2014 58.9114 45.807C58.9114 46.4559 59.2791 47.148 59.6252 47.148C59.7982 47.148 60.2308 46.5857 60.6201 45.8719C61.1176 45.0067 61.6151 44.4443 62.1775 44.1199C62.6533 43.8603 62.9778 43.5575 62.8913 43.4494C62.7615 43.2114 60.7499 43.4277 60.1443 43.7305Z" fill="black"/>
<path d="M51.1247 51.6254C51.1247 51.6903 50.4325 52.6853 49.5673 53.8749C48.4642 55.3673 47.8802 56.0162 47.5558 56.0162C46.431 56.0162 46.1931 56.2758 45.1332 58.3523L44.095 60.4287L44.0301 58.5037C43.9652 56.6219 43.9869 56.5786 44.679 55.7134C45.2846 54.978 45.4144 54.6103 45.5009 53.4207L45.6091 52.0147L46.7987 52.0796C47.4476 52.1229 48.7021 52.0147 49.5457 51.8417C50.4109 51.6687 51.1247 51.5821 51.1247 51.6254ZM46.7771 53.6153C46.6906 53.6802 46.5608 53.9614 46.4743 54.221C46.3661 54.5887 46.431 54.7185 46.6906 54.7185C47.253 54.7185 48.0965 54.0479 48.0965 53.6153C48.0965 53.2693 47.9884 53.226 47.4909 53.3341C47.1664 53.4207 46.842 53.5288 46.7771 53.6153Z" fill="black"/>
<path d="M48.0748 64.7986C46.4958 65.9882 44.3329 66.6587 42.2564 66.5938C41.521 66.5722 41.5426 66.5506 42.5809 66.2694C44.6789 65.6638 47.772 64.6255 47.9667 64.4309C48.0965 64.3227 48.3344 64.2362 48.5074 64.2362C48.6805 64.2362 48.4858 64.4957 48.0748 64.7986Z" fill="#282827"/>
<path d="M47.6638 66.7445C46.9933 67.5232 45.6306 67.9774 43.5542 68.0639C42.4078 68.1288 41.2614 68.0639 40.9586 67.9341C40.4828 67.7611 40.5693 67.7178 41.5859 67.7178C42.9918 67.6962 45.9983 67.1338 46.9501 66.7012C47.8152 66.3119 48.0099 66.3119 47.6638 66.7445Z" fill="#282827"/>
<path d="M38.4536 25.732C38.7648 25.7827 39.0386 25.8715 39.0759 25.9096C39.1755 26.0365 39.6858 26.3029 39.8228 26.3029C39.8974 26.3029 40.246 26.6073 40.6069 26.9625C41.2666 27.6476 41.8143 28.5483 41.8143 28.9669C41.8143 29.1065 41.8641 29.2333 41.9139 29.2714C41.9761 29.3094 42.0881 30.3497 42.1753 31.5929C42.2624 32.8361 42.3869 33.9905 42.4366 34.1681C42.4989 34.3458 42.586 34.6629 42.6233 34.8913C42.6731 35.1069 42.8723 35.5255 43.0714 35.8046C43.2706 36.0964 43.4324 36.3628 43.4324 36.4009C43.4324 36.6039 45.1501 37.8724 46.0836 38.3545C46.5442 38.5955 47.4404 39.4836 47.6146 39.8768C47.9631 40.6634 48.0378 40.9424 48.0378 41.4626C48.0378 41.767 47.988 42.0588 47.9133 42.0969C47.8511 42.1349 47.7889 42.2872 47.7889 42.4267C47.7889 42.7692 47.5648 43.1371 46.9798 43.7334C45.9094 44.8497 44.6024 45.04 43.171 44.3042C42.4242 43.9236 40.5945 41.9954 39.7481 40.7014C38.5532 38.8746 38.0802 37.2635 38.0677 34.9927C38.0677 34.1935 38.1175 33.3309 38.1922 33.0645C38.4909 31.872 38.7399 30.3624 38.7399 29.69C38.7274 29.005 38.5532 28.5483 38.13 28.117C37.881 27.8505 37.0844 27.4446 36.8355 27.4446C36.711 27.4446 36.5616 27.3812 36.5243 27.3177C36.487 27.2416 36.2878 27.1909 36.0886 27.1909C35.3169 27.1909 35.1178 26.1253 35.8024 25.7447C36.1633 25.5544 37.4205 25.5544 38.4536 25.732Z" fill="black"/>
<defs>
<linearGradient id="paint0_linear_569_3140" x1="60.7269" y1="36.2344" x2="61.9543" y2="102.924" gradientUnits="userSpaceOnUse">
<stop stop-color="#F7DFBC"/>
<stop offset="1" stop-color="#FDF8F1" stop-opacity="0"/>
</linearGradient>
</defs>
</svg>
