<svg width="256" height="256" viewBox="0 0 256 256" fill="none" xmlns="http://www.w3.org/2000/svg">
<circle cx="128" cy="128" r="126.694" transform="rotate(90.5938 128 128)" fill="#F7DFBC"/>
<path d="M113.271 196.847C117.853 200.12 129.909 202.029 135.364 202.574L128.818 196.847L127.182 189.482V177.208L131.273 171.48L142.729 161.661L158.276 142.84L162.368 136.294L173.005 134.658L170.55 120.747V106.836L169.732 99.4718L153.367 88.8342L144.366 79.8332L138.638 72.4688H128L117.362 73.287L105.088 83.9246L97.7238 85.5611L91.9959 87.1977L88.7228 92.9256L82.9949 105.2V113.382L73.9939 122.384L69.9025 129.748L77.267 136.294L80.5401 139.567L88.7228 141.204L100.997 136.294H106.725L112.453 141.204L115.726 148.568H124.727L122.272 156.751L105.088 169.843V184.572C105.907 187.3 108.689 193.573 113.271 196.847Z" fill="url(#paint0_linear_569_3150)"/>
<path d="M140.101 58.2609C146.417 58.9963 154.939 62.8032 160.606 67.3022C162.553 68.9028 164.067 70.2438 163.981 70.3303C163.894 70.4168 162.769 69.941 161.472 69.2488C156.583 66.61 150.873 64.9661 145.033 64.5335C140.491 64.1875 133.872 64.5336 131.233 65.269C125.523 66.8696 121.716 68.2971 121.716 68.8595C121.716 69.2921 122.235 69.2488 124.961 68.7297C131.536 67.4319 140.707 67.5185 146.807 68.946C151.911 70.114 153.079 70.4601 156.367 71.8444C168.566 76.9923 178.256 85.9903 183.145 96.6754C184.918 100.525 185.091 100.958 185.913 103.683C186.952 107.058 186.735 107.75 185.481 105.327C183.621 101.867 182.453 100.352 179.122 96.9782C173.584 91.3112 167.571 88.0235 159.136 85.947C152.95 84.4329 150.916 84.606 155.675 86.2931C168.22 90.7056 179.122 100.136 184.313 111.167C190.109 123.41 190.283 135.825 184.875 148.068C184.356 149.236 183.88 150.101 183.837 150.014C183.75 149.928 183.88 148.241 184.053 146.208C184.442 142.487 183.88 133.662 183.188 131.845C182.972 131.283 182.453 129.769 182.063 128.471C181.068 125.443 179.165 121.896 177.175 119.43C176.31 118.305 175.531 117.353 175.488 117.267C175.401 117.18 175.228 117.18 175.098 117.31C174.969 117.44 175.358 118.997 175.964 120.728C178.602 128.601 179.554 136.258 178.775 143.612C178.386 147.851 177.478 152.35 176.699 154.211C176.483 154.686 175.704 156.547 174.925 158.363C174.19 160.18 172.287 163.901 170.772 166.583C164.976 176.792 162.51 182.459 161.688 187.304L161.385 189.251L160.779 187.088C160.044 184.406 160.26 177.83 161.299 170.865C162.337 163.814 162.596 156.503 161.947 153.691C161.342 151.269 160.65 151.009 160.65 153.216C160.65 154.47 159.698 158.45 158.963 160.267C157.838 162.949 155.675 167.318 154.247 169.654C153.339 171.168 152.041 173.721 151.306 175.408C150.181 178.133 150.051 178.912 150.051 182.978C150.094 187.737 150.527 189.251 152.906 192.885C153.815 194.226 153.815 194.312 153.036 193.88C152.603 193.62 150.613 191.933 148.667 190.159C142.308 184.233 139.539 178.695 140.664 174.24C140.923 173.245 141.053 172.293 140.88 172.163C140.491 171.774 134.348 178.609 132.964 181.075C131.32 183.887 129.935 188.169 129.935 190.332C129.935 193.577 131.536 197.297 134.218 200.368L135.992 202.358L132.877 201.147C125.004 198.119 120.072 194.182 117.304 188.688C116.136 186.309 115.963 185.574 115.963 182.372C115.963 179.085 116.092 178.522 117.39 176.186C119.467 172.466 122.495 169.654 128.854 165.501C141.659 157.152 145.249 154.34 148.451 150.101C152.344 144.996 154.334 136.344 153.382 129.034C152.906 125.356 151.435 120.814 150.051 118.651C149.705 118.132 149.056 117.137 148.624 116.488L147.888 115.277L149.186 116.229C151.046 117.57 154.637 121.42 156.367 123.929C158.054 126.351 160.65 131.586 160.65 132.538C160.65 132.884 160.823 133.316 161.082 133.446C161.299 133.576 161.515 134.138 161.515 134.657C161.515 135.306 161.645 135.436 161.991 135.09C162.337 134.744 162.337 134.181 162.034 133.143C161.774 132.364 161.472 130.764 161.299 129.596C161.126 128.428 160.866 127.173 160.65 126.784C160.433 126.395 159.958 125.097 159.525 123.929C157.232 117.397 150.138 108.918 143.778 105.068C140.404 103.078 134.997 100.612 132.747 100.136C131.536 99.8766 131.493 99.8333 132.315 99.3575C132.877 99.0114 135.429 98.8384 139.453 98.8384C145.249 98.8384 145.941 98.9681 148.71 100.05C158.703 103.986 165.711 113.244 166.879 124.059C167.225 127.26 167.788 129.034 168.134 128.039C168.263 127.692 168.566 125.616 168.869 123.453C169.604 117.57 168.48 110.605 165.927 105.154C161.082 94.772 150.83 87.7639 139.409 87.0718L135.3 86.8122L134.478 83.3082C133.137 77.3816 132.358 76.5597 127.686 76.5597C121.932 76.5597 116.309 79.0688 111.766 83.611C110.123 85.2549 108.652 86.9852 108.522 87.4178C108.262 88.1965 107.743 88.2398 101.384 88.2398H94.5059L92.0833 92.1331C90.7855 94.2961 88.7956 97.6271 87.6708 99.617C85.6376 103.164 85.6376 103.164 85.4646 107.923L85.2916 112.638L83.5179 114.888C82.523 116.142 79.7111 119.387 77.2453 122.155C73.0491 126.827 72.1839 128.428 74.1739 127.822C74.6497 127.649 76.7694 127.692 78.8892 127.865L82.7825 128.168L80.8358 130.288C79.1054 132.235 78.8892 132.667 78.8892 134.527C78.8892 136.474 78.9757 136.647 80.4897 137.383C81.7875 138.031 83.0853 138.205 86.6759 138.161C91.9968 138.161 92.5159 137.945 98.7886 133.273C103.417 129.769 103.504 129.726 108.176 131.975C112.761 134.181 116.136 138.551 117.39 143.915C117.65 145.169 118.039 146.208 118.212 146.208C118.342 146.208 118.947 145.169 119.553 143.915C120.462 142.011 120.635 141.06 120.635 137.556C120.635 133.879 120.505 133.186 119.38 130.937C117.736 127.736 113.843 124.015 110.382 122.372L107.657 121.074L109.82 121.333C118.472 122.415 126.648 129.033 128.767 136.69C128.984 137.512 129.287 140.151 129.46 142.53L129.719 146.856L130.541 145.126C133.439 138.767 133.137 132.97 129.633 127.952C127.124 124.318 122.625 121.463 117.477 120.252C116.222 119.949 115.227 119.603 115.314 119.43C115.4 119.3 116.438 117.31 117.693 115.061C121.11 108.788 121.24 109.567 115.53 103.943L110.598 99.0546L111.204 96.3726C112.545 90.5758 116.179 85.6875 120.981 83.2649C123.014 82.27 124.052 82.0104 126.561 82.0104L129.633 81.9671L130.282 84.5627C130.801 86.7257 130.844 87.5909 130.368 89.9701C129.503 94.5557 126.777 99.0114 123.446 101.304L122.365 102.04L123.446 102.948C124.052 103.467 126.345 105.371 128.594 107.187C141.14 117.44 145.422 123.367 146.85 132.711C147.326 135.825 146.85 140.973 145.898 142.747C145.725 143.093 145.12 144.347 144.557 145.559C143.303 148.371 137.203 154.47 133.18 157.022C131.493 158.104 130.065 159.056 129.935 159.185C129.806 159.358 127.772 160.613 125.436 161.997C114.751 168.313 109.863 173.807 108.738 180.556C107.916 185.79 110.209 191.976 114.795 196.778C116.179 198.249 117.087 199.417 116.785 199.417C115.876 199.417 110.382 196.432 108.003 194.615C103.114 190.938 99.6537 184.406 99.6537 178.782C99.6537 172.163 102.855 165.847 110.252 157.931C115.227 152.653 115.573 151.918 111.723 154.946C109.776 156.417 108.955 156.547 109.387 155.162C110.555 151.442 110.771 146.424 109.863 144.261C107.83 139.373 102.466 141.189 99.0914 147.895C98.3127 149.409 96.7986 151.615 95.6739 152.74C93.8137 154.686 93.5109 154.859 91.5642 154.859C90.3097 154.859 88.7523 154.513 87.7574 153.994C85.1185 152.653 83.7775 152.826 81.8308 154.903C80.8791 155.898 80.0139 156.547 79.8409 156.374C79.6678 156.2 79.538 154.384 79.538 152.264C79.538 148.803 79.6246 148.327 80.5763 147.332C81.1819 146.683 82.0904 146.208 82.7825 146.208C83.9505 146.208 87.8439 147.376 88.6226 147.938C88.8388 148.111 89.6608 148.414 90.4395 148.587C91.9968 148.89 92.1698 148.76 95.7604 144.477C98.0099 141.838 98.529 141.06 98.2262 140.714C97.7936 140.281 95.3278 142.055 95.3278 142.79C95.3278 143.266 94.9384 143.612 94.3328 143.698C93.8137 143.785 93.4244 144.001 93.5109 144.261C93.5974 144.477 93.2081 144.78 92.6889 144.91C92.1698 145.04 91.5209 145.515 91.2614 145.991C91.0018 146.467 90.7423 146.943 90.699 147.029C90.4395 147.419 89.1849 145.948 88.6226 144.607C88.0602 143.223 87.9304 143.179 85.6376 143.179C83.3449 143.179 83.2151 143.223 83.2151 144.261V145.342L80.7493 144.218C79.365 143.612 77.8077 142.704 77.2453 142.184C76.2936 141.319 74.5632 137.945 74.5632 137.037C74.5632 136.82 73.0491 135.133 71.1889 133.316C66.0411 128.255 66.1708 129.034 69.8912 124.881C71.6215 122.934 75.0823 119.041 77.5048 116.229L81.9173 111.167V106.841C81.9173 102.04 81.4415 103.208 87.2815 93.4309C89.9203 89.0184 90.8288 87.0718 91.0883 85.2549C92.5592 76.0406 98.3992 68.2106 107.527 63.1925C108.868 62.4571 110.079 61.8515 110.209 61.8515C110.339 61.8515 109.56 62.6734 108.522 63.6251C103.677 68.0808 100.432 74.5265 99.87 80.8857L99.6105 83.6975L101.471 80.0205C106.705 69.8112 112.286 64.274 121.284 60.3806C125.696 58.434 134.045 57.5255 140.101 58.2609ZM120.289 87.4611C119.25 88.0235 117.823 90.4027 117.823 91.614C117.823 92.9118 118.558 94.2961 119.25 94.2961C119.596 94.2961 120.462 93.1714 121.24 91.7438C122.235 90.0134 123.23 88.8887 124.355 88.2398C125.307 87.7207 125.956 87.115 125.783 86.8987C125.523 86.4229 121.5 86.8555 120.289 87.4611Z" fill="black"/>
<path d="M102.249 103.251C102.249 103.381 100.865 105.371 99.1347 107.75C96.9284 110.735 95.7604 112.032 95.1115 112.032C92.862 112.032 92.3862 112.552 90.2665 116.705L88.19 120.857L88.0602 117.007C87.9304 113.244 87.9737 113.157 89.358 111.427C90.5693 109.956 90.8288 109.221 91.0019 106.841L91.2182 104.029L93.5974 104.159C94.8952 104.246 97.4043 104.029 99.0914 103.683C100.822 103.337 102.249 103.164 102.249 103.251ZM93.5542 107.231C93.3811 107.36 93.1216 107.923 92.9486 108.442C92.7323 109.177 92.862 109.437 93.3811 109.437C94.5059 109.437 96.193 108.096 96.193 107.231C96.193 106.539 95.9767 106.452 94.9818 106.668C94.3329 106.841 93.684 107.058 93.5542 107.231Z" fill="black"/>
<path d="M96.1496 129.597C92.9917 131.976 88.6657 133.317 84.5128 133.187C83.042 133.144 83.0852 133.101 85.1617 132.538C89.3579 131.327 95.544 129.251 95.9333 128.861C96.1929 128.645 96.6688 128.472 97.0148 128.472C97.3609 128.472 96.9716 128.991 96.1496 129.597Z" fill="#282827"/>
<path d="M95.3277 133.489C93.9866 135.046 91.2613 135.955 87.1084 136.128C84.8156 136.258 82.5228 136.128 81.9172 135.868C80.9655 135.522 81.1385 135.436 83.1717 135.436C85.9836 135.392 91.9967 134.268 93.9001 133.402C95.6305 132.624 96.0198 132.624 95.3277 133.489Z" fill="#282827"/>
<path d="M76.9072 51.4635C77.5295 51.565 78.0772 51.7426 78.1519 51.8187C78.351 52.0724 79.3717 52.6052 79.6455 52.6052C79.7949 52.6052 80.4919 53.2142 81.2139 53.9246C82.5332 55.2947 83.6286 57.0961 83.6286 57.9333C83.6286 58.2124 83.7282 58.4661 83.8277 58.5423C83.9522 58.6184 84.1763 60.6989 84.3505 63.1853C84.5248 65.6718 84.7737 67.9806 84.8733 68.3358C84.9978 68.691 85.172 69.3253 85.2467 69.782C85.3463 70.2133 85.7446 71.0506 86.1429 71.6088C86.5412 72.1923 86.8648 72.7251 86.8648 72.8013C86.8648 73.2072 90.3002 75.7444 92.1673 76.7085C93.0883 77.1906 94.8807 78.9666 95.2292 79.7532C95.9263 81.3262 96.0756 81.8844 96.0756 82.9247C96.0756 83.5336 95.9761 84.1171 95.8267 84.1933C95.7022 84.2694 95.5778 84.5738 95.5778 84.8529C95.5778 85.538 95.1297 86.2738 93.9596 87.4662C91.8188 89.699 89.2049 90.0795 86.342 88.608C84.8484 87.8468 81.189 83.9903 79.4962 81.4023C77.1063 77.7488 76.1604 74.5266 76.1355 69.985C76.1355 68.3866 76.235 66.6613 76.3844 66.1285C76.9819 63.7435 77.4797 60.7242 77.4797 59.3795C77.4549 58.0094 77.1063 57.0961 76.2599 56.2334C75.7621 55.7006 74.1688 54.8887 73.6709 54.8887C73.422 54.8887 73.1233 54.7618 73.0486 54.635C72.9739 54.4828 72.5756 54.3813 72.1773 54.3813C70.6339 54.3813 70.2356 52.25 71.6047 51.4889C72.3267 51.1083 74.841 51.1083 76.9072 51.4635Z" fill="black"/>
<defs>
<linearGradient id="paint0_linear_569_3150" x1="121.454" y1="72.4687" x2="123.909" y2="205.848" gradientUnits="userSpaceOnUse">
<stop stop-color="#F7DFBC"/>
<stop offset="1" stop-color="#FDF8F1" stop-opacity="0"/>
</linearGradient>
</defs>
</svg>
